<svg width="449" height="194" viewBox="0 0 449 194" fill="none" xmlns="http://www.w3.org/2000/svg">
<path d="M60.4805 81.1644C62.8051 83.489 64.8758 86.1075 66.6126 88.9398C65.4102 74.1372 55.2167 61.8329 41.5096 57.5177C41.0153 57.4108 40.5077 57.344 40 57.2505V69.8754C47.909 71.6523 54.9629 75.6468 60.4805 81.1644Z" fill="#F48C06"/>
<path d="M128.882 57.5177C115.188 61.8329 104.981 74.1372 103.779 88.9398C105.529 86.1075 107.586 83.5024 109.911 81.1644C115.429 75.6468 122.482 71.6656 130.378 69.8754V57.2505C129.884 57.3306 129.376 57.4108 128.882 57.5177Z" fill="#F48C06"/>
<path d="M130.392 38.2124V50.8374C121.014 52.9482 112.811 58.1986 106.972 65.4262C101.108 72.6538 97.6073 81.8586 97.6073 91.8784H97.5939V126.694H72.8116V91.8784C72.8116 90.9967 72.7715 90.1283 72.7181 89.2599C72.4375 84.6508 71.4088 80.2154 69.7522 76.114C64.6488 63.4623 53.5736 53.8834 40.0269 50.8374V38.2124C51.5964 40.1896 61.8967 45.8141 69.7522 53.87C71.97 56.1545 74.014 58.6394 75.8042 61.2847C81.2951 69.3406 84.6617 78.9195 85.1427 89.2733H85.2763C85.8507 77.156 90.3797 66.0674 97.6206 57.2767C105.717 47.4039 117.259 40.4568 130.392 38.2124Z" fill="#2F327D"/>
<path d="M85.1957 49.7957C92.0492 49.7957 97.5935 44.238 97.5935 37.3978C97.5935 36.1687 97.4065 34.9931 97.0858 33.8842C95.5628 28.7541 90.8201 25 85.1957 25C79.5712 25 74.8285 28.7541 73.3055 33.8842C72.9715 35.0064 72.7979 36.1821 72.7979 37.3978C72.7979 44.2514 78.3555 49.7957 85.1957 49.7957Z" fill="#F48C06"/>
<path d="M88.6965 147.041C88.6965 145.118 87.1334 143.555 85.2096 143.555C83.2858 143.555 81.7227 145.118 81.7227 147.041C81.7227 148.511 82.6579 149.807 83.9671 150.288V168.457L68.8306 139.854L72.8518 131.598H97.5807L101.602 139.854L86.4654 168.457V150.288C87.7747 149.807 88.6965 148.511 88.6965 147.041Z" fill="#2F327D"/>
<path d="M171.69 75.8096V79.7403C172.87 78.168 174.21 77.0067 175.728 76.2562C177.247 75.5058 178.98 75.1306 180.928 75.1306C183.411 75.1306 185.591 75.5952 187.449 76.5421C189.307 77.4891 190.844 78.9006 192.077 80.7766C192.881 82.0273 193.453 83.4566 193.792 85.0647C194.131 86.6727 194.31 88.9954 194.31 92.0864V110.364H186.27V95.0702C186.27 90.4427 185.734 87.2802 184.662 85.5649C183.59 83.8497 181.75 82.9921 179.141 82.9921C176.461 82.9921 174.531 83.9391 173.37 85.833C172.191 87.7269 171.619 90.9787 171.619 95.5883V110.382H163.865V75.8453H171.69V75.8096Z" fill="#2F327D"/>
<path d="M203.779 110.328V82.9561H198.508V75.7915H203.779V64.6067H211.819V75.7915H217.125V82.9561H211.819V110.328H203.779Z" fill="#2F327D"/>
<path d="M227.22 95.6064C227.488 98.0899 228.489 100.055 230.186 101.485C231.884 102.914 234.099 103.629 236.797 103.629C238.602 103.629 240.21 103.253 241.639 102.503C243.068 101.753 244.212 100.698 245.052 99.3406H253.717C252.252 103.111 250.054 106.041 247.142 108.113C244.23 110.204 240.853 111.24 237.011 111.24C234.439 111.24 232.062 110.793 229.9 109.882C227.738 108.971 225.791 107.631 224.076 105.844C222.45 104.147 221.181 102.181 220.27 99.9659C219.377 97.7326 218.912 95.4456 218.912 93.105C218.912 90.6929 219.323 88.4239 220.145 86.3155C220.967 84.1894 222.2 82.2776 223.808 80.5802C225.559 78.722 227.56 77.2927 229.775 76.2743C231.991 75.2737 234.278 74.7734 236.654 74.7734C239.638 74.7734 242.443 75.4524 245.034 76.8103C247.624 78.1682 249.84 80.0799 251.662 82.5635C252.77 84.0464 253.592 85.708 254.128 87.5483C254.664 89.3886 254.932 91.497 254.932 93.8911C254.932 94.0698 254.914 94.3736 254.896 94.7488C254.878 95.1419 254.861 95.4277 254.861 95.6064H227.22ZM246.284 89.2457C245.588 86.9409 244.444 85.1899 242.818 83.9928C241.192 82.7957 239.155 82.1882 236.69 82.1882C234.564 82.1882 232.634 82.8315 230.937 84.1358C229.239 85.4401 228.096 87.1374 227.506 89.2636H246.284V89.2457Z" fill="#2F327D"/>
<path d="M259.971 110.329V64.625H267.814V110.329H259.971Z" fill="#2F327D"/>
<path d="M281.214 95.6064C281.482 98.0899 282.483 100.055 284.18 101.485C285.878 102.914 288.093 103.629 290.791 103.629C292.596 103.629 294.204 103.253 295.651 102.503C297.08 101.753 298.224 100.698 299.063 99.3406H307.729C306.264 103.111 304.066 106.041 301.154 108.113C298.242 110.204 294.865 111.24 291.023 111.24C288.45 111.24 286.074 110.793 283.912 109.882C281.75 108.971 279.803 107.631 278.088 105.844C276.462 104.147 275.193 102.181 274.282 99.9659C273.389 97.7326 272.942 95.4456 272.942 93.105C272.942 90.6929 273.353 88.4239 274.175 86.3155C274.997 84.1894 276.212 82.2776 277.837 80.5802C279.588 78.722 281.59 77.2927 283.805 76.2743C286.021 75.2558 288.308 74.7734 290.684 74.7734C293.668 74.7734 296.473 75.4524 299.063 76.8103C301.654 78.1682 303.87 80.0799 305.692 82.5635C306.8 84.0464 307.622 85.708 308.158 87.5483C308.694 89.3886 308.962 91.497 308.962 93.8911C308.962 94.0698 308.944 94.3736 308.926 94.7488C308.908 95.1419 308.89 95.4277 308.89 95.6064H281.214ZM300.278 89.2457C299.582 86.9409 298.438 85.1899 296.812 83.9928C295.186 82.7957 293.149 82.1882 290.666 82.1882C288.522 82.1882 286.61 82.8315 284.913 84.1358C283.215 85.4401 282.072 87.1374 281.482 89.2636H300.278V89.2457Z" fill="#2F327D"/>
<path d="M321.666 110.329H313.912V64.625H321.666V91.8186L332.869 75.8097H341.945L329.992 92.1938L344.303 110.347H334.226L321.666 92.8013V110.329Z" fill="#2F327D"/>
<path d="M351.021 98.8757V99.3403C351.021 100.877 351.414 102.11 352.182 103.057C352.951 104.004 353.951 104.486 355.202 104.486C356.381 104.486 357.328 104.129 358.079 103.414C358.829 102.699 359.186 101.788 359.186 100.68C359.186 99.6619 358.918 98.8042 358.364 98.161C357.811 97.4999 356.846 96.8389 355.452 96.1599C354.648 95.8026 353.487 95.3202 351.932 94.6948C350.378 94.0695 349.395 93.5692 348.949 93.2119C347.68 92.1577 346.733 90.9964 346.126 89.7099C345.518 88.4235 345.214 86.9584 345.214 85.2968C345.214 82.3845 346.233 79.9367 348.27 77.9177C350.306 75.9166 352.79 74.8982 355.702 74.8982C358.775 74.8982 361.205 75.7915 363.01 77.5604C364.797 79.3471 365.779 81.8306 365.94 85.0288H358.722V84.8322C358.722 83.7245 358.436 82.849 357.864 82.2237C357.292 81.5983 356.488 81.2767 355.47 81.2767C354.577 81.2767 353.826 81.5805 353.219 82.2058C352.629 82.8311 352.325 83.5994 352.325 84.5106C352.325 86.0115 353.88 87.423 356.971 88.7094C357.793 89.0489 358.418 89.299 358.847 89.4955C361.813 90.8356 363.85 92.2649 364.939 93.8194C366.029 95.3559 366.565 97.4285 366.565 100.055C366.565 103.271 365.476 105.933 363.296 108.041C361.116 110.15 358.382 111.204 355.077 111.204C351.754 111.204 349.074 110.096 347.019 107.881C344.982 105.665 343.856 102.664 343.678 98.8757H351.021Z" fill="#2F327D"/>
<path d="M400.637 110.328V106.094C399.672 107.809 398.315 109.078 396.564 109.899C394.813 110.721 392.579 111.132 389.863 111.132C384.754 111.132 380.501 109.399 377.071 105.915C373.64 102.431 371.943 98.1072 371.943 92.9257C371.943 90.4958 372.372 88.1909 373.229 86.0112C374.087 83.8314 375.302 81.9197 376.91 80.258C378.625 78.4356 380.537 77.0955 382.627 76.2201C384.718 75.3446 387.076 74.9158 389.685 74.9158C392.186 74.9158 394.366 75.3267 396.171 76.1665C397.975 77.0062 399.44 78.2748 400.548 79.9721V75.7913H408.392V110.328H400.637ZM380.18 92.7828C380.18 95.6951 381.144 98.125 383.092 100.09C385.022 102.056 387.38 103.021 390.167 103.021C392.704 103.021 394.92 102.038 396.849 100.073C398.779 98.1072 399.744 95.8023 399.744 93.1759C399.744 90.3707 398.779 87.9587 396.832 85.9397C394.884 83.9207 392.633 82.9023 390.042 82.9023C387.326 82.9023 385.004 83.8672 383.074 85.7789C381.144 87.6907 380.18 90.0313 380.18 92.7828Z" fill="#2F327D"/>
<path d="M150.392 75.7915V110.328H158.236V75.7915H150.392Z" fill="#2F327D"/>
<path d="M158.236 64.625H150.392V72.2899H158.236V64.625Z" fill="#F48C06"/>
<path d="M152.125 126.028C151.992 126.028 151.887 125.989 151.809 125.911C151.73 125.825 151.691 125.708 151.691 125.56V118.065C151.691 117.916 151.73 117.803 151.809 117.725C151.887 117.639 151.992 117.596 152.125 117.596C152.265 117.596 152.375 117.639 152.453 117.725C152.531 117.811 152.57 117.924 152.57 118.065V125.56C152.57 125.7 152.531 125.813 152.453 125.899C152.375 125.985 152.265 126.028 152.125 126.028Z" fill="#F48C06"/>
<path d="M155.121 126.028C154.988 126.028 154.883 125.989 154.805 125.911C154.735 125.825 154.7 125.708 154.7 125.56V120.524C154.7 120.376 154.735 120.262 154.805 120.184C154.875 120.098 154.981 120.056 155.121 120.056C155.254 120.056 155.355 120.098 155.426 120.184C155.504 120.262 155.543 120.376 155.543 120.524V121.215C155.832 120.832 156.179 120.543 156.585 120.348C156.999 120.153 157.452 120.056 157.943 120.056C158.685 120.056 159.255 120.262 159.653 120.676C160.059 121.09 160.262 121.683 160.262 122.456V125.56C160.262 125.708 160.223 125.825 160.145 125.911C160.067 125.989 159.962 126.028 159.829 126.028C159.688 126.028 159.583 125.989 159.513 125.911C159.442 125.825 159.407 125.708 159.407 125.56V122.456C159.407 121.348 158.884 120.793 157.838 120.793C157.151 120.793 156.597 120.996 156.175 121.402C155.761 121.808 155.554 122.347 155.554 123.018V125.56C155.554 125.7 155.515 125.813 155.437 125.899C155.367 125.985 155.262 126.028 155.121 126.028Z" fill="#F48C06"/>
<path d="M164.341 126.028C163.795 126.028 163.28 125.927 162.796 125.724C162.312 125.513 161.929 125.224 161.648 124.857C161.593 124.779 161.566 124.701 161.566 124.623C161.566 124.545 161.585 124.478 161.625 124.424C161.671 124.361 161.73 124.314 161.8 124.283C161.863 124.26 161.913 124.248 161.952 124.248C162.023 124.248 162.081 124.268 162.128 124.307C162.183 124.338 162.245 124.392 162.315 124.471C162.823 125.009 163.498 125.279 164.341 125.279C164.747 125.279 165.075 125.208 165.325 125.068C165.575 124.927 165.7 124.732 165.7 124.482C165.7 124.303 165.649 124.158 165.548 124.049C165.454 123.932 165.29 123.826 165.056 123.733C164.829 123.631 164.455 123.491 163.932 123.311C163.424 123.139 163.026 122.975 162.737 122.819C162.448 122.663 162.233 122.487 162.093 122.292C161.952 122.089 161.882 121.843 161.882 121.555C161.882 121.102 162.077 120.739 162.468 120.465C162.866 120.192 163.393 120.056 164.049 120.056C164.533 120.056 164.982 120.141 165.395 120.313C165.809 120.477 166.121 120.7 166.332 120.981C166.395 121.067 166.426 121.149 166.426 121.227C166.426 121.344 166.363 121.437 166.239 121.508C166.16 121.555 166.082 121.578 166.004 121.578C165.872 121.578 165.747 121.519 165.63 121.402C165.427 121.199 165.204 121.051 164.962 120.957C164.72 120.856 164.412 120.805 164.037 120.805C163.623 120.805 163.307 120.871 163.088 121.004C162.87 121.137 162.76 121.324 162.76 121.566C162.76 121.746 162.803 121.89 162.889 122C162.983 122.101 163.127 122.195 163.323 122.281C163.526 122.359 163.877 122.48 164.377 122.644C164.939 122.831 165.372 123.011 165.676 123.182C165.989 123.346 166.211 123.53 166.344 123.733C166.484 123.936 166.555 124.186 166.555 124.482C166.555 124.951 166.348 125.325 165.934 125.606C165.528 125.888 164.997 126.028 164.341 126.028Z" fill="#F48C06"/>
<path d="M168.529 118.814C168.357 118.814 168.209 118.76 168.084 118.65C167.967 118.533 167.909 118.393 167.909 118.229C167.909 118.065 167.967 117.924 168.084 117.807C168.209 117.69 168.357 117.631 168.529 117.631C168.701 117.631 168.849 117.694 168.974 117.819C169.107 117.936 169.173 118.073 169.173 118.229C169.173 118.385 169.107 118.521 168.974 118.639C168.849 118.756 168.701 118.814 168.529 118.814ZM168.529 126.028C168.396 126.028 168.291 125.989 168.213 125.911C168.143 125.825 168.108 125.708 168.108 125.56V120.524C168.108 120.376 168.143 120.262 168.213 120.184C168.291 120.098 168.396 120.056 168.529 120.056C168.67 120.056 168.775 120.098 168.845 120.184C168.923 120.262 168.962 120.376 168.962 120.524V125.56C168.962 125.708 168.923 125.825 168.845 125.911C168.775 125.989 168.67 126.028 168.529 126.028Z" fill="#F48C06"/>
<path d="M173.858 128.85C173.295 128.85 172.788 128.768 172.335 128.604C171.882 128.44 171.515 128.202 171.234 127.89C171.172 127.828 171.141 127.75 171.141 127.656C171.141 127.539 171.203 127.437 171.328 127.351C171.406 127.297 171.48 127.269 171.551 127.269C171.668 127.269 171.785 127.332 171.902 127.457C172.089 127.66 172.339 127.824 172.651 127.949C172.964 128.074 173.338 128.136 173.776 128.136C174.541 128.136 175.126 127.953 175.532 127.586C175.938 127.219 176.141 126.688 176.141 125.993V124.892C175.876 125.243 175.528 125.532 175.099 125.759C174.67 125.977 174.17 126.087 173.6 126.087C172.608 126.087 171.843 125.821 171.305 125.29C170.766 124.759 170.497 124.049 170.497 123.159C170.497 122.558 170.614 122.027 170.848 121.566C171.09 121.098 171.449 120.731 171.925 120.465C172.402 120.192 172.987 120.056 173.682 120.056C174.197 120.056 174.662 120.161 175.076 120.372C175.489 120.583 175.845 120.883 176.141 121.273V120.501C176.141 120.376 176.18 120.27 176.258 120.184C176.344 120.098 176.45 120.056 176.574 120.056C176.699 120.056 176.801 120.098 176.879 120.184C176.957 120.262 176.996 120.368 176.996 120.501V125.993C176.996 126.578 176.863 127.086 176.598 127.515C176.34 127.945 175.973 128.273 175.497 128.499C175.021 128.733 174.474 128.85 173.858 128.85ZM173.682 125.325C174.104 125.325 174.498 125.243 174.865 125.079C175.239 124.916 175.544 124.666 175.778 124.33C176.012 123.986 176.129 123.569 176.129 123.077C176.129 122.64 176.036 122.249 175.848 121.906C175.661 121.562 175.388 121.293 175.029 121.098C174.67 120.895 174.24 120.793 173.74 120.793C172.983 120.793 172.398 121 171.984 121.414C171.57 121.82 171.363 122.402 171.363 123.159C171.363 123.83 171.558 124.361 171.949 124.752C172.347 125.134 172.925 125.325 173.682 125.325Z" fill="#F48C06"/>
<path d="M179.012 126.028C178.879 126.028 178.773 125.989 178.695 125.911C178.625 125.825 178.59 125.708 178.59 125.56V117.491C178.59 117.343 178.625 117.229 178.695 117.151C178.773 117.065 178.879 117.022 179.012 117.022C179.144 117.022 179.25 117.065 179.328 117.151C179.406 117.229 179.445 117.343 179.445 117.491V121.215C179.734 120.832 180.081 120.543 180.487 120.348C180.901 120.153 181.35 120.056 181.834 120.056C182.576 120.056 183.145 120.262 183.544 120.676C183.95 121.09 184.153 121.683 184.153 122.456V125.56C184.153 125.708 184.114 125.825 184.036 125.911C183.957 125.989 183.852 126.028 183.719 126.028C183.579 126.028 183.473 125.989 183.403 125.911C183.333 125.825 183.298 125.708 183.298 125.56V122.456C183.298 121.348 182.775 120.793 181.728 120.793C181.041 120.793 180.487 120.996 180.066 121.402C179.652 121.808 179.445 122.347 179.445 123.018V125.56C179.445 125.7 179.406 125.813 179.328 125.899C179.258 125.985 179.152 126.028 179.012 126.028Z" fill="#F48C06"/>
<path d="M189.649 124.752C189.735 124.822 189.778 124.904 189.778 124.997C189.778 125.076 189.742 125.169 189.672 125.279C189.508 125.505 189.282 125.688 188.993 125.829C188.704 125.962 188.407 126.028 188.103 126.028C187.588 126.028 187.182 125.876 186.885 125.571C186.588 125.267 186.44 124.849 186.44 124.318V120.887H185.808C185.495 120.887 185.339 120.766 185.339 120.524C185.339 120.415 185.378 120.329 185.456 120.266C185.542 120.204 185.659 120.173 185.808 120.173H186.44V118.17C186.44 118.022 186.475 117.909 186.545 117.831C186.624 117.745 186.733 117.702 186.873 117.702C187.006 117.702 187.108 117.745 187.178 117.831C187.256 117.909 187.295 118.022 187.295 118.17V120.173H188.888C189.028 120.173 189.137 120.204 189.216 120.266C189.301 120.321 189.344 120.407 189.344 120.524C189.344 120.766 189.192 120.887 188.888 120.887H187.295V124.389C187.295 124.99 187.576 125.29 188.138 125.29C188.318 125.29 188.482 125.255 188.63 125.185C188.778 125.115 188.927 125.001 189.075 124.845C189.192 124.72 189.305 124.658 189.415 124.658C189.485 124.658 189.563 124.689 189.649 124.752Z" fill="#F48C06"/>
<path d="M194.92 117.784C194.998 117.854 195.038 117.94 195.038 118.041C195.038 118.143 194.995 118.236 194.909 118.322C194.831 118.385 194.756 118.416 194.686 118.416C194.585 118.416 194.448 118.365 194.276 118.264C193.995 118.1 193.695 118.018 193.375 118.018C192.797 118.018 192.508 118.33 192.508 118.955V120.173H194.171C194.475 120.173 194.628 120.294 194.628 120.536C194.628 120.645 194.589 120.731 194.511 120.793C194.432 120.856 194.319 120.887 194.171 120.887H192.508V125.56C192.508 125.708 192.469 125.825 192.391 125.911C192.321 125.989 192.219 126.028 192.086 126.028C191.954 126.028 191.848 125.989 191.77 125.911C191.692 125.825 191.653 125.708 191.653 125.56V120.887H191.091C190.943 120.887 190.826 120.856 190.74 120.793C190.662 120.731 190.623 120.645 190.623 120.536C190.623 120.294 190.779 120.173 191.091 120.173H191.653V119.002C191.653 118.478 191.805 118.061 192.11 117.749C192.422 117.428 192.832 117.268 193.339 117.268C193.66 117.268 193.956 117.315 194.229 117.409C194.503 117.495 194.733 117.62 194.92 117.784Z" fill="#F48C06"/>
<path d="M198.111 126.028C197.345 126.028 196.744 125.809 196.307 125.372C195.878 124.935 195.663 124.326 195.663 123.545V120.524C195.663 120.376 195.702 120.262 195.78 120.184C195.858 120.098 195.964 120.056 196.096 120.056C196.229 120.056 196.331 120.098 196.401 120.184C196.479 120.262 196.518 120.376 196.518 120.524V123.545C196.518 124.1 196.666 124.529 196.963 124.834C197.26 125.138 197.673 125.29 198.204 125.29C198.626 125.29 199.001 125.197 199.328 125.009C199.656 124.822 199.91 124.56 200.09 124.225C200.277 123.889 200.371 123.502 200.371 123.065V120.524C200.371 120.376 200.406 120.262 200.476 120.184C200.554 120.098 200.664 120.056 200.804 120.056C200.937 120.056 201.038 120.098 201.109 120.184C201.187 120.262 201.226 120.376 201.226 120.524V125.56C201.226 125.708 201.187 125.825 201.109 125.911C201.038 125.989 200.937 126.028 200.804 126.028C200.664 126.028 200.554 125.985 200.476 125.899C200.406 125.813 200.371 125.7 200.371 125.56V124.869C200.082 125.243 199.746 125.532 199.364 125.735C198.981 125.93 198.563 126.028 198.111 126.028Z" fill="#F48C06"/>
<path d="M203.536 126.028C203.404 126.028 203.298 125.989 203.22 125.911C203.15 125.825 203.115 125.708 203.115 125.56V117.491C203.115 117.343 203.15 117.229 203.22 117.151C203.298 117.065 203.404 117.022 203.536 117.022C203.669 117.022 203.775 117.065 203.853 117.151C203.931 117.229 203.97 117.343 203.97 117.491V125.56C203.97 125.7 203.931 125.813 203.853 125.899C203.782 125.985 203.677 126.028 203.536 126.028Z" fill="#F48C06"/>
<path d="M210.639 125.911C210.162 125.911 209.792 125.786 209.526 125.536C209.261 125.279 209.128 124.927 209.128 124.482V118.065C209.128 117.916 209.167 117.803 209.245 117.725C209.323 117.639 209.428 117.596 209.561 117.596C209.702 117.596 209.811 117.639 209.889 117.725C209.967 117.803 210.006 117.916 210.006 118.065V124.506C210.006 124.709 210.061 124.873 210.17 124.997C210.287 125.122 210.44 125.185 210.627 125.185H214.527C214.831 125.185 214.983 125.306 214.983 125.548C214.983 125.665 214.944 125.755 214.866 125.817C214.788 125.88 214.675 125.911 214.527 125.911H210.639Z" fill="#F48C06"/>
<path d="M218.673 126.028C217.658 126.028 216.873 125.766 216.319 125.243C215.764 124.72 215.487 123.979 215.487 123.018C215.487 122.097 215.768 121.375 216.33 120.852C216.893 120.321 217.662 120.056 218.637 120.056C219.239 120.056 219.773 120.153 220.242 120.348C220.71 120.536 221.073 120.805 221.331 121.156C221.596 121.5 221.729 121.894 221.729 122.339C221.729 122.667 221.635 122.921 221.448 123.1C221.268 123.28 221.019 123.37 220.699 123.37H216.366C216.366 123.971 216.569 124.443 216.974 124.787C217.38 125.122 217.946 125.29 218.673 125.29C219.118 125.29 219.5 125.243 219.82 125.15C220.14 125.048 220.441 124.888 220.722 124.67C220.87 124.545 220.991 124.482 221.085 124.482C221.155 124.482 221.222 124.513 221.284 124.576C221.393 124.67 221.448 124.767 221.448 124.869C221.448 124.947 221.401 125.033 221.307 125.126C220.987 125.431 220.613 125.657 220.183 125.806C219.754 125.954 219.25 126.028 218.673 126.028ZM220.441 122.679C220.581 122.679 220.687 122.651 220.757 122.597C220.827 122.534 220.862 122.425 220.862 122.269C220.862 121.988 220.769 121.734 220.581 121.508C220.394 121.281 220.129 121.106 219.785 120.981C219.449 120.856 219.067 120.793 218.637 120.793C217.943 120.793 217.392 120.965 216.986 121.309C216.588 121.644 216.389 122.101 216.389 122.679H220.441Z" fill="#F48C06"/>
<path d="M224.9 126.028C224.135 126.028 223.533 125.86 223.096 125.524C222.667 125.189 222.452 124.724 222.452 124.131C222.452 123.545 222.679 123.081 223.131 122.737C223.592 122.394 224.217 122.222 225.005 122.222C225.466 122.222 225.872 122.284 226.223 122.409C226.582 122.534 226.859 122.702 227.055 122.913V122.163C227.055 121.718 226.906 121.379 226.61 121.145C226.321 120.91 225.895 120.793 225.333 120.793C224.607 120.793 223.979 120.965 223.448 121.309C223.315 121.387 223.206 121.426 223.12 121.426C223.042 121.426 222.964 121.394 222.886 121.332C222.8 121.262 222.757 121.172 222.757 121.063C222.757 120.946 222.807 120.848 222.909 120.77C223.19 120.551 223.545 120.38 223.975 120.255C224.412 120.122 224.857 120.056 225.31 120.056C226.137 120.056 226.777 120.243 227.23 120.618C227.691 120.992 227.921 121.519 227.921 122.199V125.571C227.921 125.876 227.781 126.028 227.5 126.028C227.375 126.028 227.273 125.989 227.195 125.911C227.117 125.825 227.078 125.716 227.078 125.583V125.161C226.594 125.739 225.868 126.028 224.9 126.028ZM225.005 125.314C225.614 125.314 226.11 125.2 226.492 124.974C226.875 124.74 227.066 124.439 227.066 124.072C227.066 123.705 226.887 123.424 226.528 123.229C226.176 123.026 225.677 122.925 225.029 122.925C224.482 122.925 224.06 123.03 223.764 123.241C223.467 123.444 223.319 123.741 223.319 124.131C223.319 124.513 223.463 124.806 223.752 125.009C224.041 125.212 224.459 125.314 225.005 125.314Z" fill="#F48C06"/>
<path d="M229.937 126.028C229.805 126.028 229.699 125.989 229.621 125.911C229.551 125.825 229.516 125.708 229.516 125.56V120.524C229.516 120.376 229.551 120.262 229.621 120.184C229.691 120.098 229.797 120.056 229.937 120.056C230.07 120.056 230.172 120.098 230.242 120.184C230.32 120.262 230.359 120.376 230.359 120.524V121.227C230.89 120.524 231.624 120.173 232.561 120.173H232.853C233.002 120.173 233.119 120.208 233.205 120.278C233.291 120.341 233.334 120.43 233.334 120.547C233.334 120.665 233.291 120.754 233.205 120.817C233.119 120.879 233.002 120.91 232.853 120.91H232.525C231.862 120.91 231.335 121.102 230.945 121.484C230.562 121.859 230.371 122.37 230.371 123.018V125.56C230.371 125.7 230.332 125.813 230.254 125.899C230.183 125.985 230.078 126.028 229.937 126.028Z" fill="#F48C06"/>
<path d="M234.992 126.028C234.86 126.028 234.754 125.989 234.676 125.911C234.606 125.825 234.571 125.708 234.571 125.56V120.524C234.571 120.376 234.606 120.262 234.676 120.184C234.746 120.098 234.852 120.056 234.992 120.056C235.125 120.056 235.226 120.098 235.297 120.184C235.375 120.262 235.414 120.376 235.414 120.524V121.215C235.703 120.832 236.05 120.543 236.456 120.348C236.87 120.153 237.323 120.056 237.815 120.056C238.556 120.056 239.126 120.262 239.524 120.676C239.93 121.09 240.133 121.683 240.133 122.456V125.56C240.133 125.708 240.094 125.825 240.016 125.911C239.938 125.989 239.833 126.028 239.7 126.028C239.559 126.028 239.454 125.989 239.384 125.911C239.313 125.825 239.278 125.708 239.278 125.56V122.456C239.278 121.348 238.755 120.793 237.709 120.793C237.022 120.793 236.468 120.996 236.046 121.402C235.632 121.808 235.426 122.347 235.426 123.018V125.56C235.426 125.7 235.386 125.813 235.308 125.899C235.238 125.985 235.133 126.028 234.992 126.028Z" fill="#F48C06"/>
<path d="M242.35 118.814C242.179 118.814 242.03 118.76 241.905 118.65C241.788 118.533 241.73 118.393 241.73 118.229C241.73 118.065 241.788 117.924 241.905 117.807C242.03 117.69 242.179 117.631 242.35 117.631C242.522 117.631 242.671 117.694 242.795 117.819C242.928 117.936 242.995 118.073 242.995 118.229C242.995 118.385 242.928 118.521 242.795 118.639C242.671 118.756 242.522 118.814 242.35 118.814ZM242.35 126.028C242.218 126.028 242.112 125.989 242.034 125.911C241.964 125.825 241.929 125.708 241.929 125.56V120.524C241.929 120.376 241.964 120.262 242.034 120.184C242.112 120.098 242.218 120.056 242.35 120.056C242.491 120.056 242.596 120.098 242.667 120.184C242.745 120.262 242.784 120.376 242.784 120.524V125.56C242.784 125.708 242.745 125.825 242.667 125.911C242.596 125.989 242.491 126.028 242.35 126.028Z" fill="#F48C06"/>
<path d="M245.079 126.028C244.946 126.028 244.841 125.989 244.763 125.911C244.693 125.825 244.657 125.708 244.657 125.56V120.524C244.657 120.376 244.693 120.262 244.763 120.184C244.833 120.098 244.939 120.056 245.079 120.056C245.212 120.056 245.313 120.098 245.384 120.184C245.462 120.262 245.501 120.376 245.501 120.524V121.215C245.789 120.832 246.137 120.543 246.543 120.348C246.957 120.153 247.409 120.056 247.901 120.056C248.643 120.056 249.213 120.262 249.611 120.676C250.017 121.09 250.22 121.683 250.22 122.456V125.56C250.22 125.708 250.181 125.825 250.103 125.911C250.025 125.989 249.919 126.028 249.787 126.028C249.646 126.028 249.541 125.989 249.471 125.911C249.4 125.825 249.365 125.708 249.365 125.56V122.456C249.365 121.348 248.842 120.793 247.796 120.793C247.109 120.793 246.555 120.996 246.133 121.402C245.719 121.808 245.512 122.347 245.512 123.018V125.56C245.512 125.7 245.473 125.813 245.395 125.899C245.325 125.985 245.22 126.028 245.079 126.028Z" fill="#F48C06"/>
<path d="M254.838 128.85C254.276 128.85 253.768 128.768 253.316 128.604C252.863 128.44 252.496 128.202 252.215 127.89C252.152 127.828 252.121 127.75 252.121 127.656C252.121 127.539 252.184 127.437 252.308 127.351C252.386 127.297 252.461 127.269 252.531 127.269C252.648 127.269 252.765 127.332 252.882 127.457C253.07 127.66 253.319 127.824 253.632 127.949C253.944 128.074 254.319 128.136 254.756 128.136C255.521 128.136 256.107 127.953 256.513 127.586C256.919 127.219 257.122 126.688 257.122 125.993V124.892C256.856 125.243 256.509 125.532 256.079 125.759C255.65 125.977 255.15 126.087 254.58 126.087C253.589 126.087 252.824 125.821 252.285 125.29C251.746 124.759 251.477 124.049 251.477 123.159C251.477 122.558 251.594 122.027 251.828 121.566C252.07 121.098 252.429 120.731 252.906 120.465C253.382 120.192 253.967 120.056 254.662 120.056C255.178 120.056 255.642 120.161 256.056 120.372C256.47 120.583 256.825 120.883 257.122 121.273V120.501C257.122 120.376 257.161 120.27 257.239 120.184C257.325 120.098 257.43 120.056 257.555 120.056C257.68 120.056 257.781 120.098 257.859 120.184C257.937 120.262 257.976 120.368 257.976 120.501V125.993C257.976 126.578 257.844 127.086 257.578 127.515C257.321 127.945 256.954 128.273 256.477 128.499C256.001 128.733 255.455 128.85 254.838 128.85ZM254.662 125.325C255.084 125.325 255.478 125.243 255.845 125.079C256.22 124.916 256.524 124.666 256.759 124.33C256.993 123.986 257.11 123.569 257.11 123.077C257.11 122.64 257.016 122.249 256.829 121.906C256.641 121.562 256.368 121.293 256.009 121.098C255.65 120.895 255.22 120.793 254.721 120.793C253.964 120.793 253.378 121 252.964 121.414C252.55 121.82 252.344 122.402 252.344 123.159C252.344 123.83 252.539 124.361 252.929 124.752C253.327 125.134 253.905 125.325 254.662 125.325Z" fill="#F48C06"/>
<path d="M263.243 126.028C263.11 126.028 263.004 125.989 262.926 125.911C262.848 125.825 262.809 125.708 262.809 125.56V119.119C262.809 118.681 262.938 118.338 263.196 118.088C263.461 117.838 263.828 117.713 264.297 117.713H267.927C268.231 117.713 268.384 117.838 268.384 118.088C268.384 118.197 268.345 118.283 268.267 118.346C268.188 118.408 268.075 118.439 267.927 118.439H264.308C264.121 118.439 263.969 118.502 263.852 118.627C263.742 118.752 263.688 118.916 263.688 119.119V121.473H267.037C267.341 121.473 267.494 121.597 267.494 121.847C267.494 121.964 267.451 122.054 267.365 122.117C267.287 122.179 267.177 122.21 267.037 122.21H263.688V125.56C263.688 125.708 263.649 125.825 263.571 125.911C263.492 125.989 263.383 126.028 263.243 126.028Z" fill="#F48C06"/>
<path d="M271.795 126.028C271.116 126.028 270.534 125.891 270.05 125.618C269.566 125.345 269.199 124.982 268.95 124.529C268.707 124.068 268.586 123.573 268.586 123.042C268.586 122.511 268.707 122.019 268.95 121.566C269.199 121.106 269.566 120.739 270.05 120.465C270.534 120.192 271.116 120.056 271.795 120.056C272.474 120.056 273.052 120.192 273.528 120.465C274.012 120.739 274.375 121.106 274.618 121.566C274.867 122.019 274.992 122.511 274.992 123.042C274.992 123.573 274.867 124.068 274.618 124.529C274.375 124.982 274.012 125.345 273.528 125.618C273.052 125.891 272.474 126.028 271.795 126.028ZM271.795 125.29C272.498 125.29 273.06 125.091 273.482 124.693C273.911 124.295 274.126 123.744 274.126 123.042C274.126 122.339 273.911 121.789 273.482 121.391C273.06 120.992 272.498 120.793 271.795 120.793C271.085 120.793 270.515 120.992 270.085 121.391C269.664 121.789 269.453 122.339 269.453 123.042C269.453 123.744 269.664 124.295 270.085 124.693C270.515 125.091 271.085 125.29 271.795 125.29Z" fill="#F48C06"/>
<path d="M276.769 126.028C276.636 126.028 276.531 125.989 276.453 125.911C276.383 125.825 276.347 125.708 276.347 125.56V120.524C276.347 120.376 276.383 120.262 276.453 120.184C276.523 120.098 276.628 120.056 276.769 120.056C276.902 120.056 277.003 120.098 277.073 120.184C277.152 120.262 277.191 120.376 277.191 120.524V121.227C277.721 120.524 278.455 120.173 279.392 120.173H279.685C279.833 120.173 279.95 120.208 280.036 120.278C280.122 120.341 280.165 120.43 280.165 120.547C280.165 120.665 280.122 120.754 280.036 120.817C279.95 120.879 279.833 120.91 279.685 120.91H279.357C278.693 120.91 278.166 121.102 277.776 121.484C277.394 121.859 277.202 122.37 277.202 123.018V125.56C277.202 125.7 277.163 125.813 277.085 125.899C277.015 125.985 276.91 126.028 276.769 126.028Z" fill="#F48C06"/>
<path d="M285.004 126.028C284.871 126.028 284.766 125.989 284.688 125.911C284.61 125.825 284.571 125.708 284.571 125.56V120.782C284.571 120.134 284.708 119.572 284.981 119.095C285.262 118.611 285.66 118.24 286.175 117.983C286.691 117.725 287.296 117.596 287.99 117.596C288.685 117.596 289.286 117.725 289.794 117.983C290.309 118.24 290.703 118.611 290.977 119.095C291.258 119.572 291.398 120.134 291.398 120.782V125.56C291.398 125.708 291.359 125.825 291.281 125.911C291.211 125.989 291.106 126.028 290.965 126.028C290.832 126.028 290.723 125.989 290.637 125.911C290.559 125.825 290.52 125.708 290.52 125.56V120.746C290.52 119.989 290.297 119.4 289.852 118.978C289.407 118.557 288.787 118.346 287.99 118.346C287.21 118.346 286.589 118.56 286.128 118.99C285.676 119.419 285.449 120.005 285.449 120.746V125.56C285.449 125.708 285.41 125.825 285.332 125.911C285.254 125.989 285.145 126.028 285.004 126.028Z" fill="#F48C06"/>
<path d="M295.959 126.028C294.944 126.028 294.159 125.766 293.605 125.243C293.051 124.72 292.774 123.979 292.774 123.018C292.774 122.097 293.055 121.375 293.617 120.852C294.179 120.321 294.948 120.056 295.924 120.056C296.525 120.056 297.06 120.153 297.528 120.348C297.997 120.536 298.36 120.805 298.617 121.156C298.883 121.5 299.016 121.894 299.016 122.339C299.016 122.667 298.922 122.921 298.734 123.1C298.555 123.28 298.305 123.37 297.985 123.37H293.652C293.652 123.971 293.855 124.443 294.261 124.787C294.667 125.122 295.233 125.29 295.959 125.29C296.404 125.29 296.787 125.243 297.107 125.15C297.427 125.048 297.727 124.888 298.008 124.67C298.157 124.545 298.278 124.482 298.371 124.482C298.442 124.482 298.508 124.513 298.57 124.576C298.68 124.67 298.734 124.767 298.734 124.869C298.734 124.947 298.688 125.033 298.594 125.126C298.274 125.431 297.899 125.657 297.47 125.806C297.04 125.954 296.537 126.028 295.959 126.028ZM297.727 122.679C297.868 122.679 297.973 122.651 298.044 122.597C298.114 122.534 298.149 122.425 298.149 122.269C298.149 121.988 298.055 121.734 297.868 121.508C297.68 121.281 297.415 121.106 297.072 120.981C296.736 120.856 296.353 120.793 295.924 120.793C295.229 120.793 294.679 120.965 294.273 121.309C293.874 121.644 293.675 122.101 293.675 122.679H297.727Z" fill="#F48C06"/>
<path d="M305.114 125.325C305.2 125.427 305.243 125.524 305.243 125.618C305.243 125.727 305.184 125.837 305.067 125.946C304.997 126.001 304.93 126.028 304.868 126.028C304.751 126.028 304.634 125.966 304.517 125.841L302.491 123.569L300.465 125.841C300.355 125.966 300.238 126.028 300.113 126.028C300.043 126.028 299.969 125.997 299.891 125.934C299.789 125.848 299.739 125.747 299.739 125.63C299.739 125.528 299.782 125.427 299.867 125.325L301.952 122.972L299.985 120.77C299.899 120.668 299.856 120.563 299.856 120.454C299.856 120.329 299.906 120.227 300.008 120.149C300.07 120.095 300.149 120.067 300.242 120.067C300.383 120.067 300.5 120.126 300.594 120.243L302.491 122.374L304.388 120.243C304.497 120.126 304.61 120.067 304.727 120.067C304.821 120.067 304.899 120.095 304.962 120.149C305.063 120.219 305.114 120.317 305.114 120.442C305.114 120.559 305.071 120.668 304.985 120.77L303.018 122.972L305.114 125.325Z" fill="#F48C06"/>
<path d="M310.485 124.752C310.571 124.822 310.613 124.904 310.613 124.997C310.613 125.076 310.578 125.169 310.508 125.279C310.344 125.505 310.118 125.688 309.829 125.829C309.54 125.962 309.243 126.028 308.939 126.028C308.424 126.028 308.018 125.876 307.721 125.571C307.424 125.267 307.276 124.849 307.276 124.318V120.887H306.644C306.331 120.887 306.175 120.766 306.175 120.524C306.175 120.415 306.214 120.329 306.292 120.266C306.378 120.204 306.495 120.173 306.644 120.173H307.276V118.17C307.276 118.022 307.311 117.909 307.381 117.831C307.459 117.745 307.569 117.702 307.709 117.702C307.842 117.702 307.943 117.745 308.014 117.831C308.092 117.909 308.131 118.022 308.131 118.17V120.173H309.723C309.864 120.173 309.973 120.204 310.051 120.266C310.137 120.321 310.18 120.407 310.18 120.524C310.18 120.766 310.028 120.887 309.723 120.887H308.131V124.389C308.131 124.99 308.412 125.29 308.974 125.29C309.154 125.29 309.317 125.255 309.466 125.185C309.614 125.115 309.762 125.001 309.911 124.845C310.028 124.72 310.141 124.658 310.25 124.658C310.321 124.658 310.399 124.689 310.485 124.752Z" fill="#F48C06"/>
<path d="M312.091 123.428C311.942 123.428 311.825 123.397 311.739 123.335C311.661 123.264 311.622 123.175 311.622 123.065C311.622 122.815 311.778 122.69 312.091 122.69H315.557C315.869 122.69 316.026 122.815 316.026 123.065C316.026 123.175 315.983 123.264 315.897 123.335C315.819 123.397 315.705 123.428 315.557 123.428H312.091Z" fill="#F48C06"/>
<path d="M319.066 125.911C318.59 125.911 318.219 125.786 317.954 125.536C317.688 125.279 317.555 124.927 317.555 124.482V118.065C317.555 117.916 317.594 117.803 317.672 117.725C317.751 117.639 317.856 117.596 317.989 117.596C318.129 117.596 318.239 117.639 318.317 117.725C318.395 117.803 318.434 117.916 318.434 118.065V124.506C318.434 124.709 318.488 124.873 318.598 124.997C318.715 125.122 318.867 125.185 319.054 125.185H322.954C323.259 125.185 323.411 125.306 323.411 125.548C323.411 125.665 323.372 125.755 323.294 125.817C323.216 125.88 323.102 125.911 322.954 125.911H319.066Z" fill="#F48C06"/>
<path d="M327.1 126.028C326.085 126.028 325.3 125.766 324.746 125.243C324.192 124.72 323.915 123.979 323.915 123.018C323.915 122.097 324.196 121.375 324.758 120.852C325.32 120.321 326.089 120.056 327.065 120.056C327.666 120.056 328.201 120.153 328.669 120.348C329.138 120.536 329.501 120.805 329.758 121.156C330.024 121.5 330.157 121.894 330.157 122.339C330.157 122.667 330.063 122.921 329.875 123.1C329.696 123.28 329.446 123.37 329.126 123.37H324.793C324.793 123.971 324.996 124.443 325.402 124.787C325.808 125.122 326.374 125.29 327.1 125.29C327.545 125.29 327.928 125.243 328.248 125.15C328.568 125.048 328.868 124.888 329.149 124.67C329.298 124.545 329.419 124.482 329.512 124.482C329.583 124.482 329.649 124.513 329.712 124.576C329.821 124.67 329.875 124.767 329.875 124.869C329.875 124.947 329.829 125.033 329.735 125.126C329.415 125.431 329.04 125.657 328.611 125.806C328.181 125.954 327.678 126.028 327.1 126.028ZM328.868 122.679C329.009 122.679 329.114 122.651 329.185 122.597C329.255 122.534 329.29 122.425 329.29 122.269C329.29 121.988 329.196 121.734 329.009 121.508C328.821 121.281 328.556 121.106 328.213 120.981C327.877 120.856 327.494 120.793 327.065 120.793C326.37 120.793 325.82 120.965 325.414 121.309C325.015 121.644 324.816 122.101 324.816 122.679H328.868Z" fill="#F48C06"/>
<path d="M333.96 126.028C333.585 126.028 333.265 125.915 332.999 125.688C332.742 125.462 332.527 125.111 332.355 124.634L330.903 120.618C330.887 120.555 330.88 120.512 330.88 120.489C330.88 120.403 330.907 120.325 330.962 120.255C331.016 120.177 331.087 120.122 331.172 120.091C331.211 120.075 331.27 120.067 331.348 120.067C331.442 120.067 331.52 120.091 331.582 120.138C331.653 120.184 331.703 120.251 331.735 120.337L333.21 124.4C333.335 124.736 333.452 124.97 333.561 125.103C333.671 125.236 333.803 125.302 333.96 125.302C334.116 125.302 334.248 125.24 334.358 125.115C334.475 124.982 334.592 124.752 334.709 124.424L336.185 120.337C336.255 120.157 336.384 120.067 336.571 120.067C336.712 120.067 336.825 120.11 336.911 120.196C337.004 120.274 337.051 120.372 337.051 120.489C337.051 120.512 337.043 120.555 337.028 120.618L335.552 124.658C335.38 125.134 335.166 125.482 334.908 125.7C334.651 125.919 334.334 126.028 333.96 126.028Z" fill="#F48C06"/>
<path d="M340.721 126.028C339.706 126.028 338.921 125.766 338.367 125.243C337.812 124.72 337.535 123.979 337.535 123.018C337.535 122.097 337.816 121.375 338.378 120.852C338.941 120.321 339.71 120.056 340.685 120.056C341.287 120.056 341.821 120.153 342.29 120.348C342.758 120.536 343.121 120.805 343.379 121.156C343.644 121.5 343.777 121.894 343.777 122.339C343.777 122.667 343.683 122.921 343.496 123.1C343.317 123.28 343.067 123.37 342.747 123.37H338.414C338.414 123.971 338.617 124.443 339.023 124.787C339.429 125.122 339.995 125.29 340.721 125.29C341.166 125.29 341.548 125.243 341.868 125.15C342.188 125.048 342.489 124.888 342.77 124.67C342.918 124.545 343.039 124.482 343.133 124.482C343.203 124.482 343.27 124.513 343.332 124.576C343.441 124.67 343.496 124.767 343.496 124.869C343.496 124.947 343.449 125.033 343.356 125.126C343.035 125.431 342.661 125.657 342.231 125.806C341.802 125.954 341.298 126.028 340.721 126.028ZM342.489 122.679C342.629 122.679 342.735 122.651 342.805 122.597C342.875 122.534 342.911 122.425 342.911 122.269C342.911 121.988 342.817 121.734 342.629 121.508C342.442 121.281 342.177 121.106 341.833 120.981C341.497 120.856 341.115 120.793 340.685 120.793C339.991 120.793 339.44 120.965 339.034 121.309C338.636 121.644 338.437 122.101 338.437 122.679H342.489Z" fill="#F48C06"/>
<path d="M345.77 126.028C345.637 126.028 345.531 125.989 345.453 125.911C345.383 125.825 345.348 125.708 345.348 125.56V117.491C345.348 117.343 345.383 117.229 345.453 117.151C345.531 117.065 345.637 117.022 345.77 117.022C345.902 117.022 346.008 117.065 346.086 117.151C346.164 117.229 346.203 117.343 346.203 117.491V125.56C346.203 125.7 346.164 125.813 346.086 125.899C346.016 125.985 345.91 126.028 345.77 126.028Z" fill="#F48C06"/>
<path d="M354.675 126.028C353.926 126.028 353.235 125.903 352.602 125.653C351.978 125.396 351.49 125.044 351.139 124.599C351.076 124.521 351.045 124.439 351.045 124.353C351.045 124.244 351.103 124.139 351.221 124.037C351.283 123.99 351.349 123.967 351.42 123.967C351.56 123.967 351.685 124.033 351.794 124.166C352.114 124.517 352.517 124.791 353.001 124.986C353.492 125.173 354.051 125.267 354.675 125.267C355.362 125.267 355.893 125.142 356.268 124.892C356.643 124.634 356.83 124.271 356.83 123.803C356.83 123.397 356.647 123.069 356.28 122.819C355.92 122.569 355.308 122.347 354.441 122.152C353.309 121.902 352.493 121.59 351.993 121.215C351.502 120.832 351.256 120.329 351.256 119.704C351.256 119.056 351.529 118.545 352.075 118.17C352.63 117.788 353.375 117.596 354.312 117.596C355.023 117.596 355.663 117.721 356.233 117.971C356.81 118.221 357.22 118.557 357.462 118.978C357.509 119.056 357.533 119.13 357.533 119.201C357.533 119.326 357.466 119.435 357.334 119.529C357.279 119.56 357.216 119.575 357.146 119.575C356.974 119.575 356.842 119.509 356.748 119.376C356.522 119.048 356.201 118.799 355.788 118.627C355.374 118.447 354.882 118.357 354.312 118.357C352.868 118.357 352.146 118.806 352.146 119.704C352.146 119.977 352.22 120.208 352.368 120.395C352.516 120.575 352.755 120.739 353.083 120.887C353.418 121.028 353.883 121.168 354.476 121.309C355.632 121.582 356.463 121.914 356.971 122.304C357.478 122.687 357.732 123.186 357.732 123.803C357.732 124.49 357.455 125.033 356.9 125.431C356.354 125.829 355.612 126.028 354.675 126.028Z" fill="#F48C06"/>
<path d="M361.592 126.028C360.827 126.028 360.226 125.809 359.789 125.372C359.359 124.935 359.145 124.326 359.145 123.545V120.524C359.145 120.376 359.184 120.262 359.262 120.184C359.34 120.098 359.445 120.056 359.578 120.056C359.711 120.056 359.812 120.098 359.883 120.184C359.961 120.262 360 120.376 360 120.524V123.545C360 124.1 360.148 124.529 360.445 124.834C360.741 125.138 361.155 125.29 361.686 125.29C362.108 125.29 362.482 125.197 362.81 125.009C363.138 124.822 363.392 124.56 363.571 124.225C363.759 123.889 363.852 123.502 363.852 123.065V120.524C363.852 120.376 363.888 120.262 363.958 120.184C364.036 120.098 364.145 120.056 364.286 120.056C364.418 120.056 364.52 120.098 364.59 120.184C364.668 120.262 364.707 120.376 364.707 120.524V125.56C364.707 125.708 364.668 125.825 364.59 125.911C364.52 125.989 364.418 126.028 364.286 126.028C364.145 126.028 364.036 125.985 363.958 125.899C363.888 125.813 363.852 125.7 363.852 125.56V124.869C363.564 125.243 363.228 125.532 362.845 125.735C362.463 125.93 362.045 126.028 361.592 126.028Z" fill="#F48C06"/>
<path d="M369.196 126.028C368.572 126.028 368.021 125.907 367.545 125.665C367.069 125.415 366.702 125.064 366.444 124.611C366.187 124.158 366.058 123.631 366.058 123.03C366.058 122.437 366.187 121.918 366.444 121.473C366.702 121.02 367.069 120.672 367.545 120.43C368.021 120.18 368.572 120.056 369.196 120.056C369.782 120.056 370.289 120.138 370.719 120.301C371.148 120.465 371.488 120.707 371.738 121.028C371.8 121.113 371.831 121.195 371.831 121.273C371.831 121.391 371.773 121.496 371.656 121.59C371.601 121.637 371.531 121.66 371.445 121.66C371.312 121.66 371.187 121.601 371.07 121.484C370.656 121.024 370.032 120.793 369.196 120.793C368.47 120.793 367.908 120.989 367.51 121.379C367.12 121.761 366.925 122.312 366.925 123.03C366.925 123.741 367.124 124.295 367.522 124.693C367.92 125.091 368.478 125.29 369.196 125.29C369.595 125.29 369.962 125.232 370.297 125.115C370.633 124.99 370.91 124.814 371.129 124.588C371.261 124.455 371.386 124.389 371.503 124.389C371.574 124.389 371.652 124.42 371.738 124.482C371.847 124.576 371.902 124.677 371.902 124.787C371.902 124.888 371.859 124.974 371.773 125.044C371.39 125.388 370.992 125.638 370.578 125.794C370.165 125.95 369.704 126.028 369.196 126.028Z" fill="#F48C06"/>
<path d="M376.081 126.028C375.457 126.028 374.906 125.907 374.43 125.665C373.954 125.415 373.587 125.064 373.329 124.611C373.071 124.158 372.943 123.631 372.943 123.03C372.943 122.437 373.071 121.918 373.329 121.473C373.587 121.02 373.954 120.672 374.43 120.43C374.906 120.18 375.457 120.056 376.081 120.056C376.667 120.056 377.174 120.138 377.603 120.301C378.033 120.465 378.372 120.707 378.622 121.028C378.685 121.113 378.716 121.195 378.716 121.273C378.716 121.391 378.657 121.496 378.54 121.59C378.486 121.637 378.415 121.66 378.33 121.66C378.197 121.66 378.072 121.601 377.955 121.484C377.541 121.024 376.916 120.793 376.081 120.793C375.355 120.793 374.793 120.989 374.395 121.379C374.004 121.761 373.809 122.312 373.809 123.03C373.809 123.741 374.008 124.295 374.406 124.693C374.805 125.091 375.363 125.29 376.081 125.29C376.479 125.29 376.846 125.232 377.182 125.115C377.518 124.99 377.795 124.814 378.013 124.588C378.146 124.455 378.271 124.389 378.388 124.389C378.458 124.389 378.536 124.42 378.622 124.482C378.732 124.576 378.786 124.677 378.786 124.787C378.786 124.888 378.743 124.974 378.657 125.044C378.275 125.388 377.877 125.638 377.463 125.794C377.049 125.95 376.589 126.028 376.081 126.028Z" fill="#F48C06"/>
<path d="M382.989 126.028C381.974 126.028 381.19 125.766 380.635 125.243C380.081 124.72 379.804 123.979 379.804 123.018C379.804 122.097 380.085 121.375 380.647 120.852C381.209 120.321 381.978 120.056 382.954 120.056C383.555 120.056 384.09 120.153 384.558 120.348C385.027 120.536 385.39 120.805 385.647 121.156C385.913 121.5 386.046 121.894 386.046 122.339C386.046 122.667 385.952 122.921 385.765 123.1C385.585 123.28 385.335 123.37 385.015 123.37H380.682C380.682 123.971 380.885 124.443 381.291 124.787C381.697 125.122 382.263 125.29 382.989 125.29C383.434 125.29 383.817 125.243 384.137 125.15C384.457 125.048 384.757 124.888 385.039 124.67C385.187 124.545 385.308 124.482 385.402 124.482C385.472 124.482 385.538 124.513 385.601 124.576C385.71 124.67 385.765 124.767 385.765 124.869C385.765 124.947 385.718 125.033 385.624 125.126C385.304 125.431 384.929 125.657 384.5 125.806C384.07 125.954 383.567 126.028 382.989 126.028ZM384.757 122.679C384.898 122.679 385.003 122.651 385.074 122.597C385.144 122.534 385.179 122.425 385.179 122.269C385.179 121.988 385.085 121.734 384.898 121.508C384.711 121.281 384.445 121.106 384.102 120.981C383.766 120.856 383.383 120.793 382.954 120.793C382.259 120.793 381.709 120.965 381.303 121.309C380.905 121.644 380.706 122.101 380.706 122.679H384.757Z" fill="#F48C06"/>
<path d="M389.865 126.028C389.319 126.028 388.803 125.927 388.319 125.724C387.835 125.513 387.453 125.224 387.172 124.857C387.117 124.779 387.09 124.701 387.09 124.623C387.09 124.545 387.109 124.478 387.148 124.424C387.195 124.361 387.254 124.314 387.324 124.283C387.386 124.26 387.437 124.248 387.476 124.248C387.546 124.248 387.605 124.268 387.652 124.307C387.706 124.338 387.769 124.392 387.839 124.471C388.347 125.009 389.022 125.279 389.865 125.279C390.271 125.279 390.599 125.208 390.849 125.068C391.099 124.927 391.223 124.732 391.223 124.482C391.223 124.303 391.173 124.158 391.071 124.049C390.978 123.932 390.814 123.826 390.579 123.733C390.353 123.631 389.978 123.491 389.455 123.311C388.948 123.139 388.549 122.975 388.261 122.819C387.972 122.663 387.757 122.487 387.617 122.292C387.476 122.089 387.406 121.843 387.406 121.555C387.406 121.102 387.601 120.739 387.991 120.465C388.389 120.192 388.916 120.056 389.572 120.056C390.056 120.056 390.505 120.141 390.919 120.313C391.333 120.477 391.645 120.7 391.856 120.981C391.918 121.067 391.95 121.149 391.95 121.227C391.95 121.344 391.887 121.437 391.762 121.508C391.684 121.555 391.606 121.578 391.528 121.578C391.395 121.578 391.27 121.519 391.153 121.402C390.95 121.199 390.728 121.051 390.486 120.957C390.244 120.856 389.935 120.805 389.561 120.805C389.147 120.805 388.831 120.871 388.612 121.004C388.393 121.137 388.284 121.324 388.284 121.566C388.284 121.746 388.327 121.89 388.413 122C388.507 122.101 388.651 122.195 388.846 122.281C389.049 122.359 389.4 122.48 389.9 122.644C390.462 122.831 390.896 123.011 391.2 123.182C391.512 123.346 391.735 123.53 391.868 123.733C392.008 123.936 392.078 124.186 392.078 124.482C392.078 124.951 391.871 125.325 391.458 125.606C391.052 125.888 390.521 126.028 389.865 126.028Z" fill="#F48C06"/>
<path d="M395.915 126.028C395.368 126.028 394.853 125.927 394.369 125.724C393.885 125.513 393.502 125.224 393.221 124.857C393.167 124.779 393.139 124.701 393.139 124.623C393.139 124.545 393.159 124.478 393.198 124.424C393.245 124.361 393.303 124.314 393.374 124.283C393.436 124.26 393.487 124.248 393.526 124.248C393.596 124.248 393.655 124.268 393.701 124.307C393.756 124.338 393.819 124.392 393.889 124.471C394.396 125.009 395.072 125.279 395.915 125.279C396.321 125.279 396.649 125.208 396.899 125.068C397.148 124.927 397.273 124.732 397.273 124.482C397.273 124.303 397.223 124.158 397.121 124.049C397.027 123.932 396.863 123.826 396.629 123.733C396.403 123.631 396.028 123.491 395.505 123.311C394.997 123.139 394.599 122.975 394.31 122.819C394.022 122.663 393.807 122.487 393.666 122.292C393.526 122.089 393.456 121.843 393.456 121.555C393.456 121.102 393.651 120.739 394.041 120.465C394.439 120.192 394.966 120.056 395.622 120.056C396.106 120.056 396.555 120.141 396.969 120.313C397.383 120.477 397.695 120.7 397.906 120.981C397.968 121.067 397.999 121.149 397.999 121.227C397.999 121.344 397.937 121.437 397.812 121.508C397.734 121.555 397.656 121.578 397.578 121.578C397.445 121.578 397.32 121.519 397.203 121.402C397 121.199 396.778 121.051 396.535 120.957C396.293 120.856 395.985 120.805 395.61 120.805C395.197 120.805 394.88 120.871 394.662 121.004C394.443 121.137 394.334 121.324 394.334 121.566C394.334 121.746 394.377 121.89 394.463 122C394.556 122.101 394.701 122.195 394.896 122.281C395.099 122.359 395.45 122.48 395.95 122.644C396.512 122.831 396.945 123.011 397.25 123.182C397.562 123.346 397.785 123.53 397.917 123.733C398.058 123.936 398.128 124.186 398.128 124.482C398.128 124.951 397.921 125.325 397.507 125.606C397.102 125.888 396.571 126.028 395.915 126.028Z" fill="#F48C06"/>
</svg>
