<svg width="127" height="49" viewBox="0 0 127 49" fill="none" xmlns="http://www.w3.org/2000/svg">
<path d="M6.9955 19.1838C7.7895 19.9778 8.4968 20.8722 9.09002 21.8396C8.67933 16.7835 5.19758 12.5808 0.515705 11.1069C0.346865 11.0704 0.173464 11.0475 6.10352e-05 11.0156V15.3279C2.70149 15.9348 5.11088 17.2992 6.9955 19.1838Z" fill="#F48C06"/>
<path d="M30.3591 11.1069C25.6818 12.5808 22.1955 16.7835 21.7848 21.8396C22.3826 20.8722 23.0853 19.9823 23.8793 19.1838C25.764 17.2992 28.1733 15.9393 30.8702 15.3279V11.0156C30.7014 11.043 30.528 11.0704 30.3591 11.1069Z" fill="#F48C06"/>
<path d="M30.8749 4.51299V8.82524C27.6715 9.54623 24.8697 11.3396 22.8755 13.8083C20.8723 16.277 19.6767 19.4211 19.6767 22.8435H19.6722V34.7353H11.2074V22.8435C11.2074 22.5423 11.1937 22.2457 11.1754 21.9491C11.0796 20.3748 10.7282 18.8598 10.1624 17.4589C8.41922 13.1375 4.6363 9.86566 0.00918579 8.82524V4.51299C3.96094 5.18834 7.47919 7.10946 10.1624 9.86109C10.9199 10.6414 11.6181 11.4902 12.2295 12.3937C14.105 15.1453 15.2549 18.4172 15.4192 21.9537H15.4649C15.6611 17.8148 17.208 14.0273 19.6813 11.0247C22.4466 7.65249 26.3892 5.27961 30.8749 4.51299Z" fill="#2F327D"/>
<path d="M15.4375 8.46936C17.7784 8.46936 19.6722 6.57106 19.6722 4.23468C19.6722 3.81486 19.6083 3.4133 19.4988 3.03455C18.9786 1.28227 17.3586 0 15.4375 0C13.5164 0 11.8964 1.28227 11.3762 3.03455C11.2621 3.41786 11.2028 3.81943 11.2028 4.23468C11.2028 6.57562 13.1011 8.46936 15.4375 8.46936Z" fill="#F48C06"/>
<path d="M16.633 41.6851C16.633 41.028 16.0991 40.4941 15.442 40.4941C14.7849 40.4941 14.251 41.028 14.251 41.6851C14.251 42.1871 14.5704 42.6297 15.0176 42.794V49L9.8475 39.2301L11.221 36.41H19.6676L21.0411 39.2301L15.871 49V42.794C16.3182 42.6297 16.633 42.1871 16.633 41.6851Z" fill="#2F327D"/>
<path d="M38.3115 34.2127C38.2662 34.2127 38.2302 34.1994 38.2035 34.1727C38.1768 34.1434 38.1635 34.1034 38.1635 34.0527V31.4927C38.1635 31.442 38.1768 31.4034 38.2035 31.3767C38.2302 31.3474 38.2662 31.3327 38.3115 31.3327C38.3595 31.3327 38.3968 31.3474 38.4235 31.3767C38.4502 31.406 38.4635 31.4447 38.4635 31.4927V34.0527C38.4635 34.1007 38.4502 34.1394 38.4235 34.1687C38.3968 34.198 38.3595 34.2127 38.3115 34.2127ZM39.335 34.2127C39.2897 34.2127 39.2537 34.1994 39.227 34.1727C39.203 34.1434 39.191 34.1034 39.191 34.0527V32.3327C39.191 32.282 39.203 32.2434 39.227 32.2167C39.251 32.1874 39.287 32.1727 39.335 32.1727C39.3803 32.1727 39.415 32.1874 39.439 32.2167C39.4657 32.2434 39.479 32.282 39.479 32.3327V32.5687C39.5777 32.438 39.6963 32.3394 39.835 32.2727C39.9763 32.206 40.131 32.1727 40.299 32.1727C40.5523 32.1727 40.747 32.2434 40.883 32.3847C41.0217 32.526 41.091 32.7287 41.091 32.9927V34.0527C41.091 34.1034 41.0777 34.1434 41.051 34.1727C41.0243 34.1994 40.9883 34.2127 40.943 34.2127C40.895 34.2127 40.859 34.1994 40.835 34.1727C40.811 34.1434 40.799 34.1034 40.799 34.0527V32.9927C40.799 32.614 40.6203 32.4247 40.263 32.4247C40.0283 32.4247 39.839 32.494 39.695 32.6327C39.5537 32.7714 39.483 32.9554 39.483 33.1847V34.0527C39.483 34.1007 39.4697 34.1394 39.443 34.1687C39.419 34.198 39.383 34.2127 39.335 34.2127ZM42.4843 34.2127C42.2977 34.2127 42.1217 34.178 41.9563 34.1087C41.791 34.0367 41.6603 33.938 41.5643 33.8127C41.5457 33.786 41.5363 33.7594 41.5363 33.7327C41.5363 33.706 41.543 33.6834 41.5563 33.6647C41.5723 33.6434 41.5923 33.6274 41.6163 33.6167C41.6377 33.6087 41.655 33.6047 41.6683 33.6047C41.6923 33.6047 41.7123 33.6114 41.7283 33.6247C41.747 33.6354 41.7683 33.654 41.7923 33.6807C41.9657 33.8647 42.1963 33.9567 42.4843 33.9567C42.623 33.9567 42.735 33.9327 42.8203 33.8847C42.9057 33.8367 42.9483 33.77 42.9483 33.6847C42.9483 33.6234 42.931 33.574 42.8963 33.5367C42.8643 33.4967 42.8083 33.4607 42.7283 33.4287C42.651 33.394 42.523 33.346 42.3443 33.2847C42.171 33.226 42.035 33.17 41.9363 33.1167C41.8377 33.0634 41.7643 33.0034 41.7163 32.9367C41.6683 32.8674 41.6443 32.7834 41.6443 32.6847C41.6443 32.53 41.711 32.406 41.8443 32.3127C41.9803 32.2194 42.1603 32.1727 42.3843 32.1727C42.5497 32.1727 42.703 32.202 42.8443 32.2607C42.9857 32.3167 43.0923 32.3927 43.1643 32.4887C43.1857 32.518 43.1963 32.546 43.1963 32.5727C43.1963 32.6127 43.175 32.6447 43.1323 32.6687C43.1057 32.6847 43.079 32.6927 43.0523 32.6927C43.007 32.6927 42.9643 32.6727 42.9243 32.6327C42.855 32.5634 42.779 32.5127 42.6963 32.4807C42.6137 32.446 42.5083 32.4287 42.3803 32.4287C42.239 32.4287 42.131 32.4514 42.0563 32.4967C41.9817 32.542 41.9443 32.606 41.9443 32.6887C41.9443 32.75 41.959 32.7994 41.9883 32.8367C42.0203 32.8714 42.0697 32.9034 42.1363 32.9327C42.2057 32.9594 42.3257 33.0007 42.4963 33.0567C42.6883 33.1207 42.8363 33.182 42.9403 33.2407C43.047 33.2967 43.123 33.3594 43.1683 33.4287C43.2163 33.498 43.2403 33.5834 43.2403 33.6847C43.2403 33.8447 43.1697 33.9727 43.0283 34.0687C42.8897 34.1647 42.7083 34.2127 42.4843 34.2127ZM43.9147 31.7487C43.8561 31.7487 43.8054 31.73 43.7627 31.6927C43.7227 31.6527 43.7027 31.6047 43.7027 31.5487C43.7027 31.4927 43.7227 31.4447 43.7627 31.4047C43.8054 31.3647 43.8561 31.3447 43.9147 31.3447C43.9734 31.3447 44.0241 31.366 44.0667 31.4087C44.1121 31.4487 44.1347 31.4954 44.1347 31.5487C44.1347 31.602 44.1121 31.6487 44.0667 31.6887C44.0241 31.7287 43.9734 31.7487 43.9147 31.7487ZM43.9147 34.2127C43.8694 34.2127 43.8334 34.1994 43.8067 34.1727C43.7827 34.1434 43.7707 34.1034 43.7707 34.0527V32.3327C43.7707 32.282 43.7827 32.2434 43.8067 32.2167C43.8334 32.1874 43.8694 32.1727 43.9147 32.1727C43.9627 32.1727 43.9987 32.1874 44.0227 32.2167C44.0494 32.2434 44.0627 32.282 44.0627 32.3327V34.0527C44.0627 34.1034 44.0494 34.1434 44.0227 34.1727C43.9987 34.1994 43.9627 34.2127 43.9147 34.2127ZM45.7347 35.1767C45.5427 35.1767 45.3694 35.1487 45.2147 35.0927C45.0601 35.0367 44.9347 34.9554 44.8387 34.8487C44.8174 34.8274 44.8067 34.8007 44.8067 34.7687C44.8067 34.7287 44.8281 34.694 44.8707 34.6647C44.8974 34.646 44.9227 34.6367 44.9467 34.6367C44.9867 34.6367 45.0267 34.658 45.0667 34.7007C45.1307 34.77 45.2161 34.826 45.3227 34.8687C45.4294 34.9114 45.5574 34.9327 45.7067 34.9327C45.9681 34.9327 46.1681 34.87 46.3067 34.7447C46.4454 34.6194 46.5147 34.438 46.5147 34.2007V33.8247C46.4241 33.9447 46.3054 34.0434 46.1587 34.1207C46.0121 34.1954 45.8414 34.2327 45.6467 34.2327C45.3081 34.2327 45.0467 34.142 44.8627 33.9607C44.6787 33.7794 44.5867 33.5367 44.5867 33.2327C44.5867 33.0274 44.6267 32.846 44.7067 32.6887C44.7894 32.5287 44.9121 32.4034 45.0747 32.3127C45.2374 32.2194 45.4374 32.1727 45.6747 32.1727C45.8507 32.1727 46.0094 32.2087 46.1507 32.2807C46.2921 32.3527 46.4134 32.4554 46.5147 32.5887V32.3247C46.5147 32.282 46.5281 32.246 46.5547 32.2167C46.5841 32.1874 46.6201 32.1727 46.6627 32.1727C46.7054 32.1727 46.7401 32.1874 46.7667 32.2167C46.7934 32.2434 46.8067 32.2794 46.8067 32.3247V34.2007C46.8067 34.4007 46.7614 34.574 46.6707 34.7207C46.5827 34.8674 46.4574 34.9794 46.2947 35.0567C46.1321 35.1367 45.9454 35.1767 45.7347 35.1767ZM45.6747 33.9727C45.8187 33.9727 45.9534 33.9447 46.0787 33.8887C46.2067 33.8327 46.3107 33.7474 46.3907 33.6327C46.4707 33.5154 46.5107 33.3727 46.5107 33.2047C46.5107 33.0554 46.4787 32.922 46.4147 32.8047C46.3507 32.6874 46.2574 32.5954 46.1347 32.5287C46.0121 32.4594 45.8654 32.4247 45.6947 32.4247C45.4361 32.4247 45.2361 32.4954 45.0947 32.6367C44.9534 32.7754 44.8827 32.974 44.8827 33.2327C44.8827 33.462 44.9494 33.6434 45.0827 33.7767C45.2187 33.9074 45.4161 33.9727 45.6747 33.9727ZM47.4952 34.2127C47.4498 34.2127 47.4138 34.1994 47.3872 34.1727C47.3632 34.1434 47.3512 34.1034 47.3512 34.0527V31.2967C47.3512 31.246 47.3632 31.2074 47.3872 31.1807C47.4138 31.1514 47.4498 31.1367 47.4952 31.1367C47.5405 31.1367 47.5765 31.1514 47.6032 31.1807C47.6298 31.2074 47.6432 31.246 47.6432 31.2967V32.5687C47.7418 32.438 47.8605 32.3394 47.9992 32.2727C48.1405 32.206 48.2938 32.1727 48.4592 32.1727C48.7125 32.1727 48.9072 32.2434 49.0432 32.3847C49.1818 32.526 49.2512 32.7287 49.2512 32.9927V34.0527C49.2512 34.1034 49.2378 34.1434 49.2112 34.1727C49.1845 34.1994 49.1485 34.2127 49.1032 34.2127C49.0552 34.2127 49.0192 34.1994 48.9952 34.1727C48.9712 34.1434 48.9592 34.1034 48.9592 34.0527V32.9927C48.9592 32.614 48.7805 32.4247 48.4232 32.4247C48.1885 32.4247 47.9992 32.494 47.8552 32.6327C47.7138 32.7714 47.6432 32.9554 47.6432 33.1847V34.0527C47.6432 34.1007 47.6298 34.1394 47.6032 34.1687C47.5792 34.198 47.5432 34.2127 47.4952 34.2127ZM51.1285 33.7767C51.1578 33.8007 51.1725 33.8287 51.1725 33.8607C51.1725 33.8874 51.1605 33.9194 51.1365 33.9567C51.0805 34.034 51.0031 34.0967 50.9045 34.1447C50.8058 34.19 50.7045 34.2127 50.6005 34.2127C50.4245 34.2127 50.2858 34.1607 50.1845 34.0567C50.0831 33.9527 50.0325 33.81 50.0325 33.6287V32.4567H49.8165C49.7098 32.4567 49.6565 32.4154 49.6565 32.3327C49.6565 32.2954 49.6698 32.266 49.6965 32.2447C49.7258 32.2234 49.7658 32.2127 49.8165 32.2127H50.0325V31.5287C50.0325 31.478 50.0445 31.4394 50.0685 31.4127C50.0951 31.3834 50.1325 31.3687 50.1805 31.3687C50.2258 31.3687 50.2605 31.3834 50.2845 31.4127C50.3111 31.4394 50.3245 31.478 50.3245 31.5287V32.2127H50.8685C50.9165 32.2127 50.9538 32.2234 50.9805 32.2447C51.0098 32.2634 51.0245 32.2927 51.0245 32.3327C51.0245 32.4154 50.9725 32.4567 50.8685 32.4567H50.3245V33.6527C50.3245 33.858 50.4205 33.9607 50.6125 33.9607C50.6738 33.9607 50.7298 33.9487 50.7805 33.9247C50.8311 33.9007 50.8818 33.862 50.9325 33.8087C50.9725 33.766 51.0111 33.7447 51.0485 33.7447C51.0725 33.7447 51.0991 33.7554 51.1285 33.7767ZM52.9291 31.3967C52.9557 31.4207 52.9691 31.45 52.9691 31.4847C52.9691 31.5194 52.9544 31.5514 52.9251 31.5807C52.8984 31.602 52.8731 31.6127 52.8491 31.6127C52.8144 31.6127 52.7677 31.5954 52.7091 31.5607C52.6131 31.5047 52.5104 31.4767 52.4011 31.4767C52.2037 31.4767 52.1051 31.5834 52.1051 31.7967V32.2127H52.6731C52.7771 32.2127 52.8291 32.254 52.8291 32.3367C52.8291 32.374 52.8157 32.4034 52.7891 32.4247C52.7624 32.446 52.7237 32.4567 52.6731 32.4567H52.1051V34.0527C52.1051 34.1034 52.0917 34.1434 52.0651 34.1727C52.0411 34.1994 52.0064 34.2127 51.9611 34.2127C51.9157 34.2127 51.8797 34.1994 51.8531 34.1727C51.8264 34.1434 51.8131 34.1034 51.8131 34.0527V32.4567H51.6211C51.5704 32.4567 51.5304 32.446 51.5011 32.4247C51.4744 32.4034 51.4611 32.374 51.4611 32.3367C51.4611 32.254 51.5144 32.2127 51.6211 32.2127H51.8131V31.8127C51.8131 31.634 51.8651 31.4914 51.9691 31.3847C52.0757 31.2754 52.2157 31.2207 52.3891 31.2207C52.4984 31.2207 52.5997 31.2367 52.6931 31.2687C52.7864 31.298 52.8651 31.3407 52.9291 31.3967ZM54.0187 34.2127C53.7574 34.2127 53.5521 34.138 53.4027 33.9887C53.2561 33.8394 53.1827 33.6314 53.1827 33.3647V32.3327C53.1827 32.282 53.1961 32.2434 53.2227 32.2167C53.2494 32.1874 53.2854 32.1727 53.3307 32.1727C53.3761 32.1727 53.4107 32.1874 53.4347 32.2167C53.4614 32.2434 53.4747 32.282 53.4747 32.3327V33.3647C53.4747 33.554 53.5254 33.7007 53.6267 33.8047C53.7281 33.9087 53.8694 33.9607 54.0507 33.9607C54.1947 33.9607 54.3227 33.9287 54.4347 33.8647C54.5467 33.8007 54.6334 33.7114 54.6947 33.5967C54.7587 33.482 54.7907 33.35 54.7907 33.2007V32.3327C54.7907 32.282 54.8027 32.2434 54.8267 32.2167C54.8534 32.1874 54.8907 32.1727 54.9387 32.1727C54.9841 32.1727 55.0187 32.1874 55.0427 32.2167C55.0694 32.2434 55.0827 32.282 55.0827 32.3327V34.0527C55.0827 34.1034 55.0694 34.1434 55.0427 34.1727C55.0187 34.1994 54.9841 34.2127 54.9387 34.2127C54.8907 34.2127 54.8534 34.198 54.8267 34.1687C54.8027 34.1394 54.7907 34.1007 54.7907 34.0527V33.8167C54.6921 33.9447 54.5774 34.0434 54.4467 34.1127C54.3161 34.1794 54.1734 34.2127 54.0187 34.2127ZM55.872 34.2127C55.8267 34.2127 55.7907 34.1994 55.764 34.1727C55.74 34.1434 55.728 34.1034 55.728 34.0527V31.2967C55.728 31.246 55.74 31.2074 55.764 31.1807C55.7907 31.1514 55.8267 31.1367 55.872 31.1367C55.9174 31.1367 55.9534 31.1514 55.98 31.1807C56.0067 31.2074 56.02 31.246 56.02 31.2967V34.0527C56.02 34.1007 56.0067 34.1394 55.98 34.1687C55.956 34.198 55.92 34.2127 55.872 34.2127ZM58.2979 34.1727C58.1352 34.1727 58.0086 34.13 57.9179 34.0447C57.8272 33.9567 57.7819 33.8367 57.7819 33.6847V31.4927C57.7819 31.442 57.7952 31.4034 57.8219 31.3767C57.8486 31.3474 57.8846 31.3327 57.9299 31.3327C57.9779 31.3327 58.0152 31.3474 58.0419 31.3767C58.0686 31.4034 58.0819 31.442 58.0819 31.4927V33.6927C58.0819 33.762 58.1006 33.818 58.1379 33.8607C58.1779 33.9034 58.2299 33.9247 58.2939 33.9247H59.6259C59.7299 33.9247 59.7819 33.966 59.7819 34.0487C59.7819 34.0887 59.7686 34.1194 59.7419 34.1407C59.7152 34.162 59.6766 34.1727 59.6259 34.1727H58.2979ZM61.042 34.2127C60.6953 34.2127 60.4273 34.1234 60.238 33.9447C60.0487 33.766 59.954 33.5127 59.954 33.1847C59.954 32.87 60.05 32.6234 60.242 32.4447C60.434 32.2634 60.6967 32.1727 61.03 32.1727C61.2353 32.1727 61.418 32.206 61.578 32.2727C61.738 32.3367 61.862 32.4287 61.95 32.5487C62.0407 32.666 62.086 32.8007 62.086 32.9527C62.086 33.0647 62.054 33.1514 61.99 33.2127C61.9287 33.274 61.8433 33.3047 61.734 33.3047H60.254C60.254 33.51 60.3233 33.6714 60.462 33.7887C60.6007 33.9034 60.794 33.9607 61.042 33.9607C61.194 33.9607 61.3247 33.9447 61.434 33.9127C61.5433 33.878 61.646 33.8234 61.742 33.7487C61.7927 33.706 61.834 33.6847 61.866 33.6847C61.89 33.6847 61.9127 33.6954 61.934 33.7167C61.9713 33.7487 61.99 33.782 61.99 33.8167C61.99 33.8434 61.974 33.8727 61.942 33.9047C61.8327 34.0087 61.7047 34.086 61.558 34.1367C61.4113 34.1874 61.2393 34.2127 61.042 34.2127ZM61.646 33.0687C61.694 33.0687 61.73 33.0594 61.754 33.0407C61.778 33.0194 61.79 32.982 61.79 32.9287C61.79 32.8327 61.758 32.746 61.694 32.6687C61.63 32.5914 61.5393 32.5314 61.422 32.4887C61.3073 32.446 61.1767 32.4247 61.03 32.4247C60.7927 32.4247 60.6047 32.4834 60.466 32.6007C60.33 32.7154 60.262 32.8714 60.262 33.0687H61.646ZM63.169 34.2127C62.9077 34.2127 62.7023 34.1554 62.553 34.0407C62.4063 33.926 62.333 33.7674 62.333 33.5647C62.333 33.3647 62.4103 33.206 62.565 33.0887C62.7223 32.9714 62.9357 32.9127 63.205 32.9127C63.3623 32.9127 63.501 32.934 63.621 32.9767C63.7437 33.0194 63.8383 33.0767 63.905 33.1487V32.8927C63.905 32.7407 63.8543 32.6247 63.753 32.5447C63.6543 32.4647 63.509 32.4247 63.317 32.4247C63.069 32.4247 62.8543 32.4834 62.673 32.6007C62.6277 32.6274 62.5903 32.6407 62.561 32.6407C62.5343 32.6407 62.5077 32.63 62.481 32.6087C62.4517 32.5847 62.437 32.554 62.437 32.5167C62.437 32.4767 62.4543 32.4434 62.489 32.4167C62.585 32.342 62.7063 32.2834 62.853 32.2407C63.0023 32.1954 63.1543 32.1727 63.309 32.1727C63.5917 32.1727 63.8103 32.2367 63.965 32.3647C64.1223 32.4927 64.201 32.6727 64.201 32.9047V34.0567C64.201 34.1607 64.153 34.2127 64.057 34.2127C64.0143 34.2127 63.9797 34.1994 63.953 34.1727C63.9263 34.1434 63.913 34.106 63.913 34.0607V33.9167C63.7477 34.114 63.4997 34.2127 63.169 34.2127ZM63.205 33.9687C63.413 33.9687 63.5823 33.93 63.713 33.8527C63.8437 33.7727 63.909 33.67 63.909 33.5447C63.909 33.4194 63.8477 33.3234 63.725 33.2567C63.605 33.1874 63.4343 33.1527 63.213 33.1527C63.0263 33.1527 62.8823 33.1887 62.781 33.2607C62.6797 33.33 62.629 33.4314 62.629 33.5647C62.629 33.6954 62.6783 33.7954 62.777 33.8647C62.8757 33.934 63.0183 33.9687 63.205 33.9687ZM64.8897 34.2127C64.8444 34.2127 64.8084 34.1994 64.7817 34.1727C64.7577 34.1434 64.7457 34.1034 64.7457 34.0527V32.3327C64.7457 32.282 64.7577 32.2434 64.7817 32.2167C64.8057 32.1874 64.8417 32.1727 64.8897 32.1727C64.935 32.1727 64.9697 32.1874 64.9937 32.2167C65.0204 32.2434 65.0337 32.282 65.0337 32.3327V32.5727C65.215 32.3327 65.4657 32.2127 65.7857 32.2127H65.8857C65.9364 32.2127 65.9764 32.2247 66.0057 32.2487C66.035 32.27 66.0497 32.3007 66.0497 32.3407C66.0497 32.3807 66.035 32.4114 66.0057 32.4327C65.9764 32.454 65.9364 32.4647 65.8857 32.4647H65.7737C65.547 32.4647 65.367 32.53 65.2337 32.6607C65.103 32.7887 65.0377 32.9634 65.0377 33.1847V34.0527C65.0377 34.1007 65.0244 34.1394 64.9977 34.1687C64.9737 34.198 64.9377 34.2127 64.8897 34.2127ZM66.6163 34.2127C66.5709 34.2127 66.5349 34.1994 66.5083 34.1727C66.4843 34.1434 66.4723 34.1034 66.4723 34.0527V32.3327C66.4723 32.282 66.4843 32.2434 66.5083 32.2167C66.5323 32.1874 66.5683 32.1727 66.6163 32.1727C66.6616 32.1727 66.6963 32.1874 66.7203 32.2167C66.7469 32.2434 66.7603 32.282 66.7603 32.3327V32.5687C66.8589 32.438 66.9776 32.3394 67.1163 32.2727C67.2576 32.206 67.4123 32.1727 67.5803 32.1727C67.8336 32.1727 68.0283 32.2434 68.1643 32.3847C68.3029 32.526 68.3723 32.7287 68.3723 32.9927V34.0527C68.3723 34.1034 68.3589 34.1434 68.3323 34.1727C68.3056 34.1994 68.2696 34.2127 68.2243 34.2127C68.1763 34.2127 68.1403 34.1994 68.1163 34.1727C68.0923 34.1434 68.0803 34.1034 68.0803 34.0527V32.9927C68.0803 32.614 67.9016 32.4247 67.5443 32.4247C67.3096 32.4247 67.1203 32.494 66.9763 32.6327C66.8349 32.7714 66.7643 32.9554 66.7643 33.1847V34.0527C66.7643 34.1007 66.7509 34.1394 66.7243 34.1687C66.7003 34.198 66.6643 34.2127 66.6163 34.2127ZM69.1296 31.7487C69.0709 31.7487 69.0202 31.73 68.9776 31.6927C68.9376 31.6527 68.9176 31.6047 68.9176 31.5487C68.9176 31.4927 68.9376 31.4447 68.9776 31.4047C69.0202 31.3647 69.0709 31.3447 69.1296 31.3447C69.1882 31.3447 69.2389 31.366 69.2816 31.4087C69.3269 31.4487 69.3496 31.4954 69.3496 31.5487C69.3496 31.602 69.3269 31.6487 69.2816 31.6887C69.2389 31.7287 69.1882 31.7487 69.1296 31.7487ZM69.1296 34.2127C69.0842 34.2127 69.0482 34.1994 69.0216 34.1727C68.9976 34.1434 68.9856 34.1034 68.9856 34.0527V32.3327C68.9856 32.282 68.9976 32.2434 69.0216 32.2167C69.0482 32.1874 69.0842 32.1727 69.1296 32.1727C69.1776 32.1727 69.2136 32.1874 69.2376 32.2167C69.2642 32.2434 69.2776 32.282 69.2776 32.3327V34.0527C69.2776 34.1034 69.2642 34.1434 69.2376 34.1727C69.2136 34.1994 69.1776 34.2127 69.1296 34.2127ZM70.0616 34.2127C70.0162 34.2127 69.9802 34.1994 69.9536 34.1727C69.9296 34.1434 69.9176 34.1034 69.9176 34.0527V32.3327C69.9176 32.282 69.9296 32.2434 69.9536 32.2167C69.9776 32.1874 70.0136 32.1727 70.0616 32.1727C70.1069 32.1727 70.1416 32.1874 70.1656 32.2167C70.1922 32.2434 70.2056 32.282 70.2056 32.3327V32.5687C70.3042 32.438 70.4229 32.3394 70.5616 32.2727C70.7029 32.206 70.8576 32.1727 71.0256 32.1727C71.2789 32.1727 71.4736 32.2434 71.6096 32.3847C71.7482 32.526 71.8176 32.7287 71.8176 32.9927V34.0527C71.8176 34.1034 71.8042 34.1434 71.7776 34.1727C71.7509 34.1994 71.7149 34.2127 71.6696 34.2127C71.6216 34.2127 71.5856 34.1994 71.5616 34.1727C71.5376 34.1434 71.5256 34.1034 71.5256 34.0527V32.9927C71.5256 32.614 71.3469 32.4247 70.9896 32.4247C70.7549 32.4247 70.5656 32.494 70.4216 32.6327C70.2802 32.7714 70.2096 32.9554 70.2096 33.1847V34.0527C70.2096 34.1007 70.1962 34.1394 70.1696 34.1687C70.1456 34.198 70.1096 34.2127 70.0616 34.2127ZM73.3949 35.1767C73.2029 35.1767 73.0296 35.1487 72.8749 35.0927C72.7202 35.0367 72.5949 34.9554 72.4989 34.8487C72.4776 34.8274 72.4669 34.8007 72.4669 34.7687C72.4669 34.7287 72.4882 34.694 72.5309 34.6647C72.5576 34.646 72.5829 34.6367 72.6069 34.6367C72.6469 34.6367 72.6869 34.658 72.7269 34.7007C72.7909 34.77 72.8762 34.826 72.9829 34.8687C73.0896 34.9114 73.2176 34.9327 73.3669 34.9327C73.6282 34.9327 73.8282 34.87 73.9669 34.7447C74.1056 34.6194 74.1749 34.438 74.1749 34.2007V33.8247C74.0842 33.9447 73.9656 34.0434 73.8189 34.1207C73.6722 34.1954 73.5016 34.2327 73.3069 34.2327C72.9682 34.2327 72.7069 34.142 72.5229 33.9607C72.3389 33.7794 72.2469 33.5367 72.2469 33.2327C72.2469 33.0274 72.2869 32.846 72.3669 32.6887C72.4496 32.5287 72.5722 32.4034 72.7349 32.3127C72.8976 32.2194 73.0976 32.1727 73.3349 32.1727C73.5109 32.1727 73.6696 32.2087 73.8109 32.2807C73.9522 32.3527 74.0736 32.4554 74.1749 32.5887V32.3247C74.1749 32.282 74.1882 32.246 74.2149 32.2167C74.2442 32.1874 74.2802 32.1727 74.3229 32.1727C74.3656 32.1727 74.4002 32.1874 74.4269 32.2167C74.4536 32.2434 74.4669 32.2794 74.4669 32.3247V34.2007C74.4669 34.4007 74.4216 34.574 74.3309 34.7207C74.2429 34.8674 74.1176 34.9794 73.9549 35.0567C73.7922 35.1367 73.6056 35.1767 73.3949 35.1767ZM73.3349 33.9727C73.4789 33.9727 73.6136 33.9447 73.7389 33.8887C73.8669 33.8327 73.9709 33.7474 74.0509 33.6327C74.1309 33.5154 74.1709 33.3727 74.1709 33.2047C74.1709 33.0554 74.1389 32.922 74.0749 32.8047C74.0109 32.6874 73.9176 32.5954 73.7949 32.5287C73.6722 32.4594 73.5256 32.4247 73.3549 32.4247C73.0962 32.4247 72.8962 32.4954 72.7549 32.6367C72.6136 32.7754 72.5429 32.974 72.5429 33.2327C72.5429 33.462 72.6096 33.6434 72.7429 33.7767C72.8789 33.9074 73.0762 33.9727 73.3349 33.9727ZM76.2656 34.2127C76.2203 34.2127 76.1843 34.1994 76.1576 34.1727C76.131 34.1434 76.1176 34.1034 76.1176 34.0527V31.8527C76.1176 31.7034 76.1616 31.586 76.2496 31.5007C76.3403 31.4154 76.4656 31.3727 76.6256 31.3727H77.8656C77.9696 31.3727 78.0216 31.4154 78.0216 31.5007C78.0216 31.538 78.0083 31.5674 77.9816 31.5887C77.955 31.61 77.9163 31.6207 77.8656 31.6207H76.6296C76.5656 31.6207 76.5136 31.642 76.4736 31.6847C76.4363 31.7274 76.4176 31.7834 76.4176 31.8527V32.6567H77.5616C77.6656 32.6567 77.7176 32.6994 77.7176 32.7847C77.7176 32.8247 77.703 32.8554 77.6736 32.8767C77.647 32.898 77.6096 32.9087 77.5616 32.9087H76.4176V34.0527C76.4176 34.1034 76.4043 34.1434 76.3776 34.1727C76.351 34.1994 76.3136 34.2127 76.2656 34.2127ZM79.1869 34.2127C78.9549 34.2127 78.7563 34.166 78.5909 34.0727C78.4256 33.9794 78.3003 33.8554 78.2149 33.7007C78.1323 33.5434 78.0909 33.374 78.0909 33.1927C78.0909 33.0114 78.1323 32.8434 78.2149 32.6887C78.3003 32.5314 78.4256 32.406 78.5909 32.3127C78.7563 32.2194 78.9549 32.1727 79.1869 32.1727C79.4189 32.1727 79.6163 32.2194 79.7789 32.3127C79.9443 32.406 80.0683 32.5314 80.1509 32.6887C80.2363 32.8434 80.2789 33.0114 80.2789 33.1927C80.2789 33.374 80.2363 33.5434 80.1509 33.7007C80.0683 33.8554 79.9443 33.9794 79.7789 34.0727C79.6163 34.166 79.4189 34.2127 79.1869 34.2127ZM79.1869 33.9607C79.4269 33.9607 79.6189 33.8927 79.7629 33.7567C79.9096 33.6207 79.9829 33.4327 79.9829 33.1927C79.9829 32.9527 79.9096 32.7647 79.7629 32.6287C79.6189 32.4927 79.4269 32.4247 79.1869 32.4247C78.9443 32.4247 78.7496 32.4927 78.6029 32.6287C78.4589 32.7647 78.3869 32.9527 78.3869 33.1927C78.3869 33.4327 78.4589 33.6207 78.6029 33.7567C78.7496 33.8927 78.9443 33.9607 79.1869 33.9607ZM80.8858 34.2127C80.8405 34.2127 80.8045 34.1994 80.7778 34.1727C80.7538 34.1434 80.7418 34.1034 80.7418 34.0527V32.3327C80.7418 32.282 80.7538 32.2434 80.7778 32.2167C80.8018 32.1874 80.8378 32.1727 80.8858 32.1727C80.9311 32.1727 80.9658 32.1874 80.9898 32.2167C81.0165 32.2434 81.0298 32.282 81.0298 32.3327V32.5727C81.2111 32.3327 81.4618 32.2127 81.7818 32.2127H81.8818C81.9325 32.2127 81.9725 32.2247 82.0018 32.2487C82.0311 32.27 82.0458 32.3007 82.0458 32.3407C82.0458 32.3807 82.0311 32.4114 82.0018 32.4327C81.9725 32.454 81.9325 32.4647 81.8818 32.4647H81.7698C81.5431 32.4647 81.3631 32.53 81.2298 32.6607C81.0991 32.7887 81.0338 32.9634 81.0338 33.1847V34.0527C81.0338 34.1007 81.0205 34.1394 80.9938 34.1687C80.9698 34.198 80.9338 34.2127 80.8858 34.2127ZM83.6987 34.2127C83.6533 34.2127 83.6173 34.1994 83.5907 34.1727C83.564 34.1434 83.5507 34.1034 83.5507 34.0527V32.4207C83.5507 32.1994 83.5973 32.0074 83.6907 31.8447C83.7867 31.6794 83.9227 31.5527 84.0987 31.4647C84.2747 31.3767 84.4813 31.3327 84.7187 31.3327C84.956 31.3327 85.1613 31.3767 85.3347 31.4647C85.5107 31.5527 85.6453 31.6794 85.7387 31.8447C85.8347 32.0074 85.8827 32.1994 85.8827 32.4207V34.0527C85.8827 34.1034 85.8693 34.1434 85.8427 34.1727C85.8187 34.1994 85.7827 34.2127 85.7347 34.2127C85.6893 34.2127 85.652 34.1994 85.6227 34.1727C85.596 34.1434 85.5827 34.1034 85.5827 34.0527V32.4087C85.5827 32.15 85.5067 31.9487 85.3547 31.8047C85.2027 31.6607 84.9907 31.5887 84.7187 31.5887C84.452 31.5887 84.24 31.662 84.0827 31.8087C83.928 31.9554 83.8507 32.1554 83.8507 32.4087V34.0527C83.8507 34.1034 83.8373 34.1434 83.8107 34.1727C83.784 34.1994 83.7467 34.2127 83.6987 34.2127ZM87.4405 34.2127C87.0938 34.2127 86.8258 34.1234 86.6365 33.9447C86.4471 33.766 86.3525 33.5127 86.3525 33.1847C86.3525 32.87 86.4485 32.6234 86.6405 32.4447C86.8325 32.2634 87.0951 32.1727 87.4285 32.1727C87.6338 32.1727 87.8165 32.206 87.9765 32.2727C88.1365 32.3367 88.2605 32.4287 88.3485 32.5487C88.4391 32.666 88.4845 32.8007 88.4845 32.9527C88.4845 33.0647 88.4525 33.1514 88.3885 33.2127C88.3271 33.274 88.2418 33.3047 88.1325 33.3047H86.6525C86.6525 33.51 86.7218 33.6714 86.8605 33.7887C86.9991 33.9034 87.1925 33.9607 87.4405 33.9607C87.5925 33.9607 87.7231 33.9447 87.8325 33.9127C87.9418 33.878 88.0445 33.8234 88.1405 33.7487C88.1911 33.706 88.2325 33.6847 88.2645 33.6847C88.2885 33.6847 88.3111 33.6954 88.3325 33.7167C88.3698 33.7487 88.3885 33.782 88.3885 33.8167C88.3885 33.8434 88.3725 33.8727 88.3405 33.9047C88.2311 34.0087 88.1031 34.086 87.9565 34.1367C87.8098 34.1874 87.6378 34.2127 87.4405 34.2127ZM88.0445 33.0687C88.0925 33.0687 88.1285 33.0594 88.1525 33.0407C88.1765 33.0194 88.1885 32.982 88.1885 32.9287C88.1885 32.8327 88.1565 32.746 88.0925 32.6687C88.0285 32.5914 87.9378 32.5314 87.8205 32.4887C87.7058 32.446 87.5751 32.4247 87.4285 32.4247C87.1911 32.4247 87.0031 32.4834 86.8645 32.6007C86.7285 32.7154 86.6605 32.8714 86.6605 33.0687H88.0445ZM90.5675 33.9727C90.5968 34.0074 90.6115 34.0407 90.6115 34.0727C90.6115 34.11 90.5915 34.1474 90.5515 34.1847C90.5275 34.2034 90.5048 34.2127 90.4835 34.2127C90.4435 34.2127 90.4035 34.1914 90.3635 34.1487L89.6715 33.3727L88.9795 34.1487C88.9421 34.1914 88.9021 34.2127 88.8595 34.2127C88.8355 34.2127 88.8101 34.202 88.7835 34.1807C88.7488 34.1514 88.7315 34.1167 88.7315 34.0767C88.7315 34.042 88.7461 34.0074 88.7755 33.9727L89.4875 33.1687L88.8155 32.4167C88.7861 32.382 88.7715 32.346 88.7715 32.3087C88.7715 32.266 88.7888 32.2314 88.8235 32.2047C88.8448 32.186 88.8715 32.1767 88.9035 32.1767C88.9515 32.1767 88.9915 32.1967 89.0235 32.2367L89.6715 32.9647L90.3195 32.2367C90.3568 32.1967 90.3955 32.1767 90.4355 32.1767C90.4675 32.1767 90.4941 32.186 90.5155 32.2047C90.5501 32.2287 90.5675 32.262 90.5675 32.3047C90.5675 32.3447 90.5528 32.382 90.5235 32.4167L89.8515 33.1687L90.5675 33.9727ZM92.4019 33.7767C92.4313 33.8007 92.4459 33.8287 92.4459 33.8607C92.4459 33.8874 92.4339 33.9194 92.4099 33.9567C92.3539 34.034 92.2766 34.0967 92.1779 34.1447C92.0793 34.19 91.9779 34.2127 91.8739 34.2127C91.6979 34.2127 91.5593 34.1607 91.4579 34.0567C91.3566 33.9527 91.3059 33.81 91.3059 33.6287V32.4567H91.0899C90.9833 32.4567 90.9299 32.4154 90.9299 32.3327C90.9299 32.2954 90.9433 32.266 90.9699 32.2447C90.9993 32.2234 91.0393 32.2127 91.0899 32.2127H91.3059V31.5287C91.3059 31.478 91.3179 31.4394 91.3419 31.4127C91.3686 31.3834 91.4059 31.3687 91.4539 31.3687C91.4993 31.3687 91.5339 31.3834 91.5579 31.4127C91.5846 31.4394 91.5979 31.478 91.5979 31.5287V32.2127H92.1419C92.1899 32.2127 92.2273 32.2234 92.2539 32.2447C92.2833 32.2634 92.2979 32.2927 92.2979 32.3327C92.2979 32.4154 92.2459 32.4567 92.1419 32.4567H91.5979V33.6527C91.5979 33.858 91.6939 33.9607 91.8859 33.9607C91.9473 33.9607 92.0033 33.9487 92.0539 33.9247C92.1046 33.9007 92.1553 33.862 92.2059 33.8087C92.2459 33.766 92.2846 33.7447 92.3219 33.7447C92.3459 33.7447 92.3726 33.7554 92.4019 33.7767ZM92.9505 33.3247C92.8998 33.3247 92.8598 33.314 92.8305 33.2927C92.8038 33.2687 92.7905 33.238 92.7905 33.2007C92.7905 33.1154 92.8438 33.0727 92.9505 33.0727H94.1345C94.2412 33.0727 94.2945 33.1154 94.2945 33.2007C94.2945 33.238 94.2798 33.2687 94.2505 33.2927C94.2238 33.314 94.1852 33.3247 94.1345 33.3247H92.9505ZM95.333 34.1727C95.1704 34.1727 95.0437 34.13 94.953 34.0447C94.8624 33.9567 94.817 33.8367 94.817 33.6847V31.4927C94.817 31.442 94.8304 31.4034 94.857 31.3767C94.8837 31.3474 94.9197 31.3327 94.965 31.3327C95.013 31.3327 95.0504 31.3474 95.077 31.3767C95.1037 31.4034 95.117 31.442 95.117 31.4927V33.6927C95.117 33.762 95.1357 33.818 95.173 33.8607C95.213 33.9034 95.265 33.9247 95.329 33.9247H96.661C96.765 33.9247 96.817 33.966 96.817 34.0487C96.817 34.0887 96.8037 34.1194 96.777 34.1407C96.7504 34.162 96.7117 34.1727 96.661 34.1727H95.333ZM98.0772 34.2127C97.7305 34.2127 97.4625 34.1234 97.2732 33.9447C97.0838 33.766 96.9892 33.5127 96.9892 33.1847C96.9892 32.87 97.0852 32.6234 97.2772 32.4447C97.4692 32.2634 97.7318 32.1727 98.0652 32.1727C98.2705 32.1727 98.4532 32.206 98.6132 32.2727C98.7732 32.3367 98.8972 32.4287 98.9852 32.5487C99.0758 32.666 99.1212 32.8007 99.1212 32.9527C99.1212 33.0647 99.0892 33.1514 99.0252 33.2127C98.9638 33.274 98.8785 33.3047 98.7692 33.3047H97.2892C97.2892 33.51 97.3585 33.6714 97.4972 33.7887C97.6358 33.9034 97.8292 33.9607 98.0772 33.9607C98.2292 33.9607 98.3598 33.9447 98.4692 33.9127C98.5785 33.878 98.6812 33.8234 98.7772 33.7487C98.8278 33.706 98.8692 33.6847 98.9012 33.6847C98.9252 33.6847 98.9478 33.6954 98.9692 33.7167C99.0065 33.7487 99.0252 33.782 99.0252 33.8167C99.0252 33.8434 99.0092 33.8727 98.9772 33.9047C98.8678 34.0087 98.7398 34.086 98.5932 34.1367C98.4465 34.1874 98.2745 34.2127 98.0772 34.2127ZM98.6812 33.0687C98.7292 33.0687 98.7652 33.0594 98.7892 33.0407C98.8132 33.0194 98.8252 32.982 98.8252 32.9287C98.8252 32.8327 98.7932 32.746 98.7292 32.6687C98.6652 32.5914 98.5745 32.5314 98.4572 32.4887C98.3425 32.446 98.2118 32.4247 98.0652 32.4247C97.8278 32.4247 97.6398 32.4834 97.5012 32.6007C97.3652 32.7154 97.2972 32.8714 97.2972 33.0687H98.6812ZM100.42 34.2127C100.292 34.2127 100.183 34.174 100.092 34.0967C100.004 34.0194 99.9308 33.8994 99.8722 33.7367L99.3762 32.3647C99.3708 32.3434 99.3682 32.3287 99.3682 32.3207C99.3682 32.2914 99.3775 32.2647 99.3962 32.2407C99.4148 32.214 99.4388 32.1954 99.4682 32.1847C99.4815 32.1794 99.5015 32.1767 99.5282 32.1767C99.5602 32.1767 99.5868 32.1847 99.6082 32.2007C99.6322 32.2167 99.6495 32.2394 99.6602 32.2687L100.164 33.6567C100.207 33.7714 100.247 33.8514 100.284 33.8967C100.322 33.942 100.367 33.9647 100.42 33.9647C100.474 33.9647 100.519 33.9434 100.556 33.9007C100.596 33.8554 100.636 33.7767 100.676 33.6647L101.18 32.2687C101.204 32.2074 101.248 32.1767 101.312 32.1767C101.36 32.1767 101.399 32.1914 101.428 32.2207C101.46 32.2474 101.476 32.2807 101.476 32.3207C101.476 32.3287 101.474 32.3434 101.468 32.3647L100.964 33.7447C100.906 33.9074 100.832 34.026 100.744 34.1007C100.656 34.1754 100.548 34.2127 100.42 34.2127ZM102.73 34.2127C102.383 34.2127 102.115 34.1234 101.926 33.9447C101.736 33.766 101.642 33.5127 101.642 33.1847C101.642 32.87 101.738 32.6234 101.93 32.4447C102.122 32.2634 102.384 32.1727 102.718 32.1727C102.923 32.1727 103.106 32.206 103.266 32.2727C103.426 32.3367 103.55 32.4287 103.638 32.5487C103.728 32.666 103.774 32.8007 103.774 32.9527C103.774 33.0647 103.742 33.1514 103.678 33.2127C103.616 33.274 103.531 33.3047 103.422 33.3047H101.942C101.942 33.51 102.011 33.6714 102.15 33.7887C102.288 33.9034 102.482 33.9607 102.73 33.9607C102.882 33.9607 103.012 33.9447 103.122 33.9127C103.231 33.878 103.334 33.8234 103.43 33.7487C103.48 33.706 103.522 33.6847 103.554 33.6847C103.578 33.6847 103.6 33.6954 103.622 33.7167C103.659 33.7487 103.678 33.782 103.678 33.8167C103.678 33.8434 103.662 33.8727 103.63 33.9047C103.52 34.0087 103.392 34.086 103.246 34.1367C103.099 34.1874 102.927 34.2127 102.73 34.2127ZM103.334 33.0687C103.382 33.0687 103.418 33.0594 103.442 33.0407C103.466 33.0194 103.478 32.982 103.478 32.9287C103.478 32.8327 103.446 32.746 103.382 32.6687C103.318 32.5914 103.227 32.5314 103.11 32.4887C102.995 32.446 102.864 32.4247 102.718 32.4247C102.48 32.4247 102.292 32.4834 102.154 32.6007C102.018 32.7154 101.95 32.8714 101.95 33.0687H103.334ZM104.454 34.2127C104.409 34.2127 104.373 34.1994 104.346 34.1727C104.322 34.1434 104.31 34.1034 104.31 34.0527V31.2967C104.31 31.246 104.322 31.2074 104.346 31.1807C104.373 31.1514 104.409 31.1367 104.454 31.1367C104.499 31.1367 104.535 31.1514 104.562 31.1807C104.589 31.2074 104.602 31.246 104.602 31.2967V34.0527C104.602 34.1007 104.589 34.1394 104.562 34.1687C104.538 34.198 104.502 34.2127 104.454 34.2127ZM107.496 34.2127C107.24 34.2127 107.004 34.17 106.788 34.0847C106.575 33.9967 106.408 33.8767 106.288 33.7247C106.267 33.698 106.256 33.67 106.256 33.6407C106.256 33.6034 106.276 33.5674 106.316 33.5327C106.337 33.5167 106.36 33.5087 106.384 33.5087C106.432 33.5087 106.475 33.5314 106.512 33.5767C106.621 33.6967 106.759 33.79 106.924 33.8567C107.092 33.9207 107.283 33.9527 107.496 33.9527C107.731 33.9527 107.912 33.91 108.04 33.8247C108.168 33.7367 108.232 33.6127 108.232 33.4527C108.232 33.314 108.169 33.202 108.044 33.1167C107.921 33.0314 107.712 32.9554 107.416 32.8887C107.029 32.8034 106.751 32.6967 106.58 32.5687C106.412 32.438 106.328 32.266 106.328 32.0527C106.328 31.8314 106.421 31.6567 106.608 31.5287C106.797 31.398 107.052 31.3327 107.372 31.3327C107.615 31.3327 107.833 31.3754 108.028 31.4607C108.225 31.546 108.365 31.6607 108.448 31.8047C108.464 31.8314 108.472 31.8567 108.472 31.8807C108.472 31.9234 108.449 31.9607 108.404 31.9927C108.385 32.0034 108.364 32.0087 108.34 32.0087C108.281 32.0087 108.236 31.986 108.204 31.9407C108.127 31.8287 108.017 31.7434 107.876 31.6847C107.735 31.6234 107.567 31.5927 107.372 31.5927C106.879 31.5927 106.632 31.746 106.632 32.0527C106.632 32.146 106.657 32.2247 106.708 32.2887C106.759 32.35 106.84 32.406 106.952 32.4567C107.067 32.5047 107.225 32.5527 107.428 32.6007C107.823 32.694 108.107 32.8074 108.28 32.9407C108.453 33.0714 108.54 33.242 108.54 33.4527C108.54 33.6874 108.445 33.8727 108.256 34.0087C108.069 34.1447 107.816 34.2127 107.496 34.2127ZM109.859 34.2127C109.597 34.2127 109.392 34.138 109.243 33.9887C109.096 33.8394 109.023 33.6314 109.023 33.3647V32.3327C109.023 32.282 109.036 32.2434 109.063 32.2167C109.089 32.1874 109.125 32.1727 109.171 32.1727C109.216 32.1727 109.251 32.1874 109.275 32.2167C109.301 32.2434 109.315 32.282 109.315 32.3327V33.3647C109.315 33.554 109.365 33.7007 109.467 33.8047C109.568 33.9087 109.709 33.9607 109.891 33.9607C110.035 33.9607 110.163 33.9287 110.275 33.8647C110.387 33.8007 110.473 33.7114 110.535 33.5967C110.599 33.482 110.631 33.35 110.631 33.2007V32.3327C110.631 32.282 110.643 32.2434 110.667 32.2167C110.693 32.1874 110.731 32.1727 110.779 32.1727C110.824 32.1727 110.859 32.1874 110.883 32.2167C110.909 32.2434 110.923 32.282 110.923 32.3327V34.0527C110.923 34.1034 110.909 34.1434 110.883 34.1727C110.859 34.1994 110.824 34.2127 110.779 34.2127C110.731 34.2127 110.693 34.198 110.667 34.1687C110.643 34.1394 110.631 34.1007 110.631 34.0527V33.8167C110.532 33.9447 110.417 34.0434 110.287 34.1127C110.156 34.1794 110.013 34.2127 109.859 34.2127ZM112.456 34.2127C112.243 34.2127 112.055 34.1714 111.892 34.0887C111.729 34.0034 111.604 33.8834 111.516 33.7287C111.428 33.574 111.384 33.394 111.384 33.1887C111.384 32.986 111.428 32.8087 111.516 32.6567C111.604 32.502 111.729 32.3834 111.892 32.3007C112.055 32.2154 112.243 32.1727 112.456 32.1727C112.656 32.1727 112.829 32.2007 112.976 32.2567C113.123 32.3127 113.239 32.3954 113.324 32.5047C113.345 32.534 113.356 32.562 113.356 32.5887C113.356 32.6287 113.336 32.6647 113.296 32.6967C113.277 32.7127 113.253 32.7207 113.224 32.7207C113.179 32.7207 113.136 32.7007 113.096 32.6607C112.955 32.5034 112.741 32.4247 112.456 32.4247C112.208 32.4247 112.016 32.4914 111.88 32.6247C111.747 32.7554 111.68 32.9434 111.68 33.1887C111.68 33.4314 111.748 33.6207 111.884 33.7567C112.02 33.8927 112.211 33.9607 112.456 33.9607C112.592 33.9607 112.717 33.9407 112.832 33.9007C112.947 33.858 113.041 33.798 113.116 33.7207C113.161 33.6754 113.204 33.6527 113.244 33.6527C113.268 33.6527 113.295 33.6634 113.324 33.6847C113.361 33.7167 113.38 33.7514 113.38 33.7887C113.38 33.8234 113.365 33.8527 113.336 33.8767C113.205 33.994 113.069 34.0794 112.928 34.1327C112.787 34.186 112.629 34.2127 112.456 34.2127ZM114.807 34.2127C114.594 34.2127 114.406 34.1714 114.243 34.0887C114.081 34.0034 113.955 33.8834 113.867 33.7287C113.779 33.574 113.735 33.394 113.735 33.1887C113.735 32.986 113.779 32.8087 113.867 32.6567C113.955 32.502 114.081 32.3834 114.243 32.3007C114.406 32.2154 114.594 32.1727 114.807 32.1727C115.007 32.1727 115.181 32.2007 115.327 32.2567C115.474 32.3127 115.59 32.3954 115.675 32.5047C115.697 32.534 115.707 32.562 115.707 32.5887C115.707 32.6287 115.687 32.6647 115.647 32.6967C115.629 32.7127 115.605 32.7207 115.575 32.7207C115.53 32.7207 115.487 32.7007 115.447 32.6607C115.306 32.5034 115.093 32.4247 114.807 32.4247C114.559 32.4247 114.367 32.4914 114.231 32.6247C114.098 32.7554 114.031 32.9434 114.031 33.1887C114.031 33.4314 114.099 33.6207 114.235 33.7567C114.371 33.8927 114.562 33.9607 114.807 33.9607C114.943 33.9607 115.069 33.9407 115.183 33.9007C115.298 33.858 115.393 33.798 115.467 33.7207C115.513 33.6754 115.555 33.6527 115.595 33.6527C115.619 33.6527 115.646 33.6634 115.675 33.6847C115.713 33.7167 115.731 33.7514 115.731 33.7887C115.731 33.8234 115.717 33.8527 115.687 33.8767C115.557 33.994 115.421 34.0794 115.279 34.1327C115.138 34.186 114.981 34.2127 114.807 34.2127ZM117.167 34.2127C116.82 34.2127 116.552 34.1234 116.363 33.9447C116.174 33.766 116.079 33.5127 116.079 33.1847C116.079 32.87 116.175 32.6234 116.367 32.4447C116.559 32.2634 116.822 32.1727 117.155 32.1727C117.36 32.1727 117.543 32.206 117.703 32.2727C117.863 32.3367 117.987 32.4287 118.075 32.5487C118.166 32.666 118.211 32.8007 118.211 32.9527C118.211 33.0647 118.179 33.1514 118.115 33.2127C118.054 33.274 117.968 33.3047 117.859 33.3047H116.379C116.379 33.51 116.448 33.6714 116.587 33.7887C116.726 33.9034 116.919 33.9607 117.167 33.9607C117.319 33.9607 117.45 33.9447 117.559 33.9127C117.668 33.878 117.771 33.8234 117.867 33.7487C117.918 33.706 117.959 33.6847 117.991 33.6847C118.015 33.6847 118.038 33.6954 118.059 33.7167C118.096 33.7487 118.115 33.782 118.115 33.8167C118.115 33.8434 118.099 33.8727 118.067 33.9047C117.958 34.0087 117.83 34.086 117.683 34.1367C117.536 34.1874 117.364 34.2127 117.167 34.2127ZM117.771 33.0687C117.819 33.0687 117.855 33.0594 117.879 33.0407C117.903 33.0194 117.915 32.982 117.915 32.9287C117.915 32.8327 117.883 32.746 117.819 32.6687C117.755 32.5914 117.664 32.5314 117.547 32.4887C117.432 32.446 117.302 32.4247 117.155 32.4247C116.918 32.4247 116.73 32.4834 116.591 32.6007C116.455 32.7154 116.387 32.8714 116.387 33.0687H117.771ZM119.516 34.2127C119.329 34.2127 119.153 34.178 118.988 34.1087C118.822 34.0367 118.692 33.938 118.596 33.8127C118.577 33.786 118.568 33.7594 118.568 33.7327C118.568 33.706 118.574 33.6834 118.588 33.6647C118.604 33.6434 118.624 33.6274 118.648 33.6167C118.669 33.6087 118.686 33.6047 118.7 33.6047C118.724 33.6047 118.744 33.6114 118.76 33.6247C118.778 33.6354 118.8 33.654 118.824 33.6807C118.997 33.8647 119.228 33.9567 119.516 33.9567C119.654 33.9567 119.766 33.9327 119.852 33.8847C119.937 33.8367 119.98 33.77 119.98 33.6847C119.98 33.6234 119.962 33.574 119.928 33.5367C119.896 33.4967 119.84 33.4607 119.76 33.4287C119.682 33.394 119.554 33.346 119.376 33.2847C119.202 33.226 119.066 33.17 118.968 33.1167C118.869 33.0634 118.796 33.0034 118.748 32.9367C118.7 32.8674 118.676 32.7834 118.676 32.6847C118.676 32.53 118.742 32.406 118.876 32.3127C119.012 32.2194 119.192 32.1727 119.416 32.1727C119.581 32.1727 119.734 32.202 119.876 32.2607C120.017 32.3167 120.124 32.3927 120.196 32.4887C120.217 32.518 120.228 32.546 120.228 32.5727C120.228 32.6127 120.206 32.6447 120.164 32.6687C120.137 32.6847 120.11 32.6927 120.084 32.6927C120.038 32.6927 119.996 32.6727 119.956 32.6327C119.886 32.5634 119.81 32.5127 119.728 32.4807C119.645 32.446 119.54 32.4287 119.412 32.4287C119.27 32.4287 119.162 32.4514 119.088 32.4967C119.013 32.542 118.976 32.606 118.976 32.6887C118.976 32.75 118.99 32.7994 119.02 32.8367C119.052 32.8714 119.101 32.9034 119.168 32.9327C119.237 32.9594 119.357 33.0007 119.528 33.0567C119.72 33.1207 119.868 33.182 119.972 33.2407C120.078 33.2967 120.154 33.3594 120.2 33.4287C120.248 33.498 120.272 33.5834 120.272 33.6847C120.272 33.8447 120.201 33.9727 120.06 34.0687C119.921 34.1647 119.74 34.2127 119.516 34.2127Z" fill="#F48C06"/>
<path d="M44.9941 17.0597V18.4023C45.3969 17.8653 45.8546 17.4686 46.3733 17.2123C46.8921 16.9559 47.484 16.8278 48.1492 16.8278C48.9975 16.8278 49.7421 16.9865 50.3768 17.3099C51.0114 17.6334 51.5363 18.1155 51.9574 18.7563C52.232 19.1835 52.4273 19.6717 52.5432 20.2209C52.6592 20.7702 52.7202 21.5635 52.7202 22.6193V28.8624H49.974V23.6385C49.974 22.0579 49.7909 20.9777 49.4247 20.3918C49.0586 19.8059 48.43 19.513 47.539 19.513C46.6236 19.513 45.9645 19.8365 45.5678 20.4833C45.165 21.1302 44.9697 22.2409 44.9697 23.8155V28.8686H42.3211V17.0719H44.9941V17.0597Z" fill="#2F327D"/>
<path d="M55.9546 28.8503V19.5009H54.1543V17.0537H55.9546V13.2333H58.7009V17.0537H60.5134V19.5009H58.7009V28.8503H55.9546Z" fill="#2F327D"/>
<path d="M63.9616 23.8216C64.0532 24.6699 64.3949 25.3412 64.9747 25.8294C65.5545 26.3177 66.3112 26.5618 67.2327 26.5618C67.8491 26.5618 68.3983 26.4336 68.8866 26.1773C69.3748 25.921 69.7654 25.5609 70.0522 25.0971H73.012C72.5116 26.3848 71.761 27.3856 70.7662 28.0936C69.7715 28.8076 68.618 29.1615 67.3059 29.1615C66.4272 29.1615 65.6155 29.009 64.877 28.6977C64.1386 28.3865 63.4734 27.9288 62.8875 27.3185C62.3322 26.7387 61.8989 26.0674 61.5877 25.3107C61.2825 24.5479 61.1238 23.7667 61.1238 22.9672C61.1238 22.1434 61.2642 21.3683 61.5449 20.6482C61.8257 19.922 62.2467 19.269 62.796 18.6892C63.3941 18.0545 64.0776 17.5663 64.8343 17.2184C65.5911 16.8767 66.3722 16.7058 67.1839 16.7058C68.2031 16.7058 69.1612 16.9377 70.0461 17.4015C70.931 17.8653 71.6877 18.5183 72.3102 19.3666C72.6886 19.8731 72.9693 20.4407 73.1524 21.0693C73.3355 21.6979 73.427 22.418 73.427 23.2358C73.427 23.2968 73.4209 23.4005 73.4148 23.5287C73.4087 23.663 73.4026 23.7606 73.4026 23.8216H63.9616ZM70.4733 21.649C70.2353 20.8618 69.8447 20.2637 69.2893 19.8548C68.734 19.4459 68.0383 19.2384 67.1961 19.2384C66.4699 19.2384 65.8108 19.4581 65.231 19.9036C64.6512 20.3491 64.2607 20.9289 64.0593 21.6551H70.4733V21.649Z" fill="#2F327D"/>
<path d="M75.148 28.8503V13.2395H77.8271V28.8503H75.148Z" fill="#2F327D"/>
<path d="M82.4041 23.8216C82.4956 24.6699 82.8374 25.3412 83.4172 25.8294C83.9969 26.3177 84.7537 26.5618 85.6752 26.5618C86.2916 26.5618 86.8408 26.4336 87.3351 26.1773C87.8234 25.921 88.2139 25.5609 88.5008 25.0971H91.4606C90.9602 26.3848 90.2096 27.3856 89.2148 28.0936C88.22 28.8076 87.0666 29.1615 85.7545 29.1615C84.8757 29.1615 84.0641 29.009 83.3256 28.6977C82.5872 28.3865 81.922 27.9288 81.3361 27.3185C80.7808 26.7387 80.3475 26.0674 80.0362 25.3107C79.7311 24.5479 79.5785 23.7667 79.5785 22.9672C79.5785 22.1434 79.7189 21.3683 79.9996 20.6482C80.2803 19.922 80.6953 19.269 81.2507 18.6892C81.8488 18.0545 82.5323 17.5663 83.289 17.2184C84.0458 16.8706 84.8269 16.7058 85.6386 16.7058C86.6577 16.7058 87.6159 16.9377 88.5008 17.4015C89.3857 17.8653 90.1424 18.5183 90.7649 19.3666C91.1433 19.8731 91.424 20.4407 91.6071 21.0693C91.7902 21.6979 91.8817 22.418 91.8817 23.2358C91.8817 23.2968 91.8756 23.4005 91.8695 23.5287C91.8634 23.663 91.8573 23.7606 91.8573 23.8216H82.4041ZM88.9158 21.649C88.6778 20.8618 88.2872 20.2637 87.7318 19.8548C87.1765 19.4459 86.4808 19.2384 85.6325 19.2384C84.9001 19.2384 84.2471 19.4581 83.6674 19.9036C83.0876 20.3491 82.697 20.9289 82.4956 21.6551H88.9158V21.649Z" fill="#2F327D"/>
<path d="M96.2207 28.8503H93.5721V13.2395H96.2207V22.5279L100.047 17.0598H103.147L99.0646 22.656L103.953 28.8565H100.511L96.2207 22.8635V28.8503Z" fill="#2F327D"/>
<path d="M106.248 24.9385V25.0972C106.248 25.622 106.382 26.0431 106.644 26.3665C106.907 26.69 107.248 26.8548 107.676 26.8548C108.078 26.8548 108.402 26.7327 108.658 26.4886C108.915 26.2445 109.037 25.9332 109.037 25.5549C109.037 25.207 108.945 24.9141 108.756 24.6944C108.567 24.4686 108.237 24.2428 107.761 24.0109C107.486 23.8888 107.09 23.724 106.559 23.5104C106.028 23.2968 105.692 23.126 105.54 23.0039C105.106 22.6438 104.783 22.2472 104.575 21.8078C104.368 21.3684 104.264 20.8679 104.264 20.3004C104.264 19.3056 104.612 18.4695 105.308 17.7799C106.003 17.0964 106.852 16.7486 107.847 16.7486C108.896 16.7486 109.726 17.0537 110.343 17.6579C110.953 18.2682 111.288 19.1164 111.343 20.2088H108.878V20.1417C108.878 19.7633 108.78 19.4643 108.585 19.2507C108.39 19.0371 108.115 18.9273 107.767 18.9273C107.462 18.9273 107.206 19.031 106.998 19.2446C106.797 19.4582 106.693 19.7206 106.693 20.0319C106.693 20.5445 107.224 21.0266 108.28 21.466C108.561 21.582 108.774 21.6674 108.921 21.7345C109.934 22.1922 110.629 22.6805 111.002 23.2114C111.374 23.7362 111.557 24.4442 111.557 25.3413C111.557 26.4398 111.185 27.3491 110.44 28.0692C109.696 28.7893 108.762 29.1494 107.633 29.1494C106.498 29.1494 105.582 28.771 104.881 28.0143C104.185 27.2575 103.8 26.2323 103.739 24.9385H106.248Z" fill="#2F327D"/>
<path d="M123.195 28.8503V27.4039C122.865 27.9898 122.402 28.4231 121.804 28.7038C121.205 28.9845 120.443 29.1249 119.515 29.1249C117.77 29.1249 116.317 28.5329 115.145 27.3429C113.974 26.1529 113.394 24.676 113.394 22.9062C113.394 22.0762 113.54 21.2889 113.833 20.5444C114.126 19.7999 114.541 19.1469 115.09 18.5793C115.676 17.9568 116.329 17.4991 117.043 17.2001C117.757 16.9011 118.563 16.7546 119.454 16.7546C120.308 16.7546 121.053 16.895 121.669 17.1818C122.286 17.4686 122.786 17.9019 123.164 18.4817V17.0536H125.844V28.8503H123.195ZM116.207 22.8574C116.207 23.8521 116.537 24.6821 117.202 25.3534C117.861 26.0247 118.667 26.3542 119.619 26.3542C120.485 26.3542 121.242 26.0186 121.901 25.3473C122.56 24.676 122.89 23.8887 122.89 22.9916C122.89 22.0335 122.56 21.2096 121.895 20.52C121.23 19.8304 120.461 19.4825 119.576 19.4825C118.648 19.4825 117.855 19.8121 117.196 20.4651C116.537 21.1181 116.207 21.9175 116.207 22.8574Z" fill="#2F327D"/>
<path d="M37.7195 17.0537V28.8504H40.3987V17.0537H37.7195Z" fill="#2F327D"/>
<path d="M40.3987 13.2395H37.7195V15.8576H40.3987V13.2395Z" fill="#F48C06"/>
</svg>
